<svg xmlns="http://www.w3.org/2000/svg" xmlns:xlink="http://www.w3.org/1999/xlink" id="Layer_1" x="0" y="0" enable-background="new 0 0 1440 384" version="1.1" viewBox="0 0 1440 384" xml:space="preserve"><style type="text/css">.st6{fill:#00bbda}.st7{fill:#84e9f4}.st8{fill:#1b86bc}.st10{fill:#0961aa}.st11{fill:#fff}.st13{fill:#d7f1ff}.st14{fill:#0858a0}.st18{opacity:.48;fill:#fff;enable-background:new}.st24{fill:#02125e}.st25{fill:#024389}.st29{opacity:.25;fill:#02125e;enable-background:new}.st30{opacity:.32}.st32{fill:#03287a}.st34{fill:#033a89}.st37{opacity:.3;fill:#02125e;enable-background:new}.st38{fill:#38b9c6}.st39{fill:#f2706d}.st40{fill:#58595b}.st41{fill:#0083c7}.st43{fill:#0283b5}.st44{fill:#024aa0}.st45{opacity:.4}.st46,.st47{enable-background:new}.st46{opacity:.3;fill:none;stroke:#111c3a;stroke-width:1.1697;stroke-miterlimit:10}.st47{opacity:.14;fill:#fff}.st48{fill:#ecf1f3}.st49{fill:#e53225}.st50{fill:#f38d13}.st51{fill:#00b4d2}.st52{fill:#161769}.st53{opacity:.22;fill:#004b92;enable-background:new}.st54{fill:#a7f0fc}.st57{fill:#7cebf7}.st58{fill:#feb423}.st62{fill:#fc7c49}.st69{fill:#fc976b}.st69,.st70,.st74{fill-rule:evenodd;clip-rule:evenodd}.st70{fill:#feb19d}.st74{fill:#6a7f99}.st86{fill:#6beefc}.st87{opacity:.22;fill:#02125e;enable-background:new}.st88{fill:#1a96c6}.st89{fill:#104f9b}.st90{opacity:.3;fill:none;stroke:#111c3a;stroke-width:1.0569;stroke-miterlimit:10;enable-background:new}.st99{fill:#f16422}.st106{opacity:.13}.st107{fill:#dee5e8}.st108,.st112{opacity:.53;fill:#1d267c;enable-background:new}.st112{opacity:.28;fill:#02125e}.st114{fill:#01347c}.st115{fill:#0a1c44}.st119{opacity:.34;fill:#010b16;enable-background:new}.st120{opacity:.47}.st121{opacity:.15;fill:#fff;enable-background:new}.st123{fill:#b28256}.st125{fill:#172f57}.st126{fill:#3a5b8e}.st127,.st128{opacity:.5;fill:#173057;enable-background:new}.st128{fill:#0594c1}.st133{display:inline;fill:none;stroke:#02125e;stroke-width:2;stroke-miterlimit:10}</style><g><g><path fill="#002877" d="M1440,327.2c0,0-144.3,32.5-715.1,32.5S0,327.2,0,327.2V0h1440V327.2z"/><linearGradient id="SVGID_1_" x1="720" x2="720" y1="107.7" y2="-252" gradientTransform="matrix(1 0 0 1 0 252)" gradientUnits="userSpaceOnUse"><stop offset="0" stop-color="#00d1d4" stop-opacity=".96"/><stop offset=".446" stop-color="#007f9b" stop-opacity=".532"/><stop offset=".823" stop-color="#01406f" stop-opacity=".17"/><stop offset="1" stop-color="#01275e" stop-opacity="0"/></linearGradient><path fill="url(#SVGID_1_)" d="M1440,327.2c0,0-144.3,32.5-715.1,32.5S0,327.2,0,327.2V0h1440V327.2z" enable-background="new" opacity=".7"/></g><path fill="#0283b5" d="M394,75.9c-2.2-4.7-6.6-11-12-13.4c-3.5-1.6-7.1-2.2-10.5-2c-1.8-14-21.7-33.8-38.8-43 c-17.1-9.2-38.8-13.7-46.8-10.7c1.6-2.4,2.2-3.9,2-6.5c0-0.1,0-0.1,0-0.2h-73.2C215.2,0.3,457,113.2,457,113.2 C454.1,106.3,434.8,89.6,394,75.9z" enable-background="new" opacity=".4"/><linearGradient id="SVGID_2_" x1="0" x2="404.9" y1="18.574" y2="18.574" gradientTransform="matrix(1 1.745507e-02 0 1 0 187.4164)" gradientUnits="userSpaceOnUse"><stop offset="0" stop-color="#00d1e7" stop-opacity=".4"/><stop offset=".308" stop-color="#00cee5" stop-opacity=".424"/><stop offset=".505" stop-color="#00c6de" stop-opacity=".44"/><stop offset=".67" stop-color="#00b7d2" stop-opacity=".453"/><stop offset=".817" stop-color="#01a2c1" stop-opacity=".465"/><stop offset=".952" stop-color="#0188ab" stop-opacity=".476"/><stop offset="1" stop-color="#017ca2" stop-opacity=".479"/></linearGradient><path fill="url(#SVGID_2_)" d="M404.9,242.7c-122.2,0.6-239-0.7-404.9-1v-60.6c33.6-2.4,46.5,25.3,46.8,25.4c0,0,9.3-7.2,26.7-8.8 c0.1-1.3,0.2-2.6,0.5-3.9c3-14.2,17.2-23.7,31.9-21.4c12.8,2,22,12.3,22.7,24.4c8.6-7.7,20.5-11.9,32.8-10.5 c16.4,1.9,29.2,13,33.5,27.5c5.7-6.9,14.7-11,24.3-10.3c13.8,1,24.4,11.5,25.3,24.4c1.6,0.7,3.2,1.5,4.6,2.4 c4.1-1.8,13.5-2.6,13.5-2.6s11.5-12,26.4-9.7c1.3-0.1,2.6-0.2,4-0.2c9.4,0.2,17.5,4.5,22.5,11.1c4.1-2,8.7-3.2,13.6-3.2 c7.8-0.1,14.9,2.8,20,7.4c6.2-3.5,13.4-5.7,21.1-6C382.5,226.6,400.7,233.2,404.9,242.7z" enable-background="new" opacity=".7"/><g><path fill="#0283b5" d="M999.1,132.7c0,0,111.3-42.1,187.5-74.7c50.5-21.5,105.6-40.6,157.5-58.1h-113.2c-0.4,1.4-0.6,2.8-0.8,4.2 c-5.7-4.4-14.8-5.4-22.9-2.6c-11.6,4.1-18.4,15-17.4,26.1c-1.3,1-2.5,2-3.6,3.1c-3.7-0.6-7.7-0.3-11.8,1 c-9.9,3.1-17.1,11.3-19,20.4c-1.1,0.2-2.3,0.4-3.4,0.8c-8,2.3-14.3-4.1-17.7,2.6c-3.7-0.7-7.8-0.6-12,0.5 c-6.6,1.8-12.3,5.8-16,10.9c-5.7-1.5-12.1-1.7-18.7-0.1c-10.9,2.6-20.1,9.4-25.8,17.9c-3.8-1.3-8.1-1.7-12.6-0.7 c-9.8,2.1-17.6,9.5-19.8,18c-4.6,1.5-8.3,4.9-10,8.9c-1.6-1.3-3.8-1.9-6.2-1.4c-4.3,0.8-7.6,4.5-7.3,8.4l1.3-0.8 C991.1,120.4,996.7,132.2,999.1,132.7z" enable-background="new" opacity=".26"/><path fill="#1acfe2" d="M1074.7,49.5c23.3-10.8,59.9-28.6,101.5-49.5h-26.3c-4.8,3.4-8.1,8.2-9.5,13.5c-3.9-0.3-8,0.3-11.9,1.9 c-6.3,2.5-11,7.1-13.7,12.5c-6-0.8-12.5-0.2-18.7,2.1C1086.2,33.6,1078.7,40.8,1074.7,49.5z" enable-background="new" opacity=".4"/></g><g><polygon points="455 42.8 420 17.1 420 14.6 455 40.4" class="st6"/><polygon points="490.1 78.5 461.1 57.2 461.1 54.7 490.1 76.1" class="st7"/></g><g><polygon points="986.5 44.3 1021.5 18.6 1021.5 16.2 986.5 41.9" class="st8"/><polygon points="951.4 83.4 980.4 62.1 980.4 59.6 951.4 80.9" class="st7"/></g><g><polygon points="1337.7 356.2 1374.9 362.8 1374.9 360.7 1337.7 354.1" class="st6"/><polygon fill="#2e9bc6" points="1309.6 317.9 1340.4 322.3 1340.4 320.2 1309.6 315.8"/></g><g><polygon points="504.2 284.5 466.7 291.5 466.8 289.2 504.3 282.2" class="st6"/><polygon points="408.3 316.2 370.8 323.8 370.9 321.5 408.4 313.9" class="st10"/><polygon points="549.4 292.8 518.4 302.4 518.5 300.1 549.6 290.5" class="st8"/></g><g><polygon points="1139.4 109.2 1174.4 95.7 1174.4 93.3 1139.4 106.7" class="st6"/><polygon points="1104.3 135.9 1133.3 124.7 1133.3 122.3 1104.3 133.5" class="st7"/></g><g><g><g><path d="M344.2,95.6l-9.1-3.3v-1.6l9.1,3.3V95.6z" class="st11"/></g><g><path d="M312.5,84.3l-9.1-3.3l-0.3-1.6l9.1,3.3L312.5,84.3z" class="st11"/></g><g><path d="M328.1,89.9l-9.1-3.3l-0.3-1.6l9.1,3.3L328.1,89.9z" class="st11"/></g><g><polygon points="289.7 75.8 284.5 73.9 284.5 68.4 285.9 68.4 285.9 72.9 290.2 74.5" class="st11"/></g><g><path d="M286.6,59.5l-1.4-0.5v-8.8l1.4,0.5V59.5z M286.6,41.8l-1.4-0.5v-8.8l1.4,0.5V41.8z" class="st11"/></g><g><path d="M344.6,50.5l-9.2-4.7v-1.6l9.2,4.7V50.5z M326.2,41.2l-9.2-4.7V35l9.2,4.7V41.2z M307.8,31.9l-9.2-4.6 v-1.6l9.2,4.6V31.9z" class="st11"/></g><g><polygon points="358.2 83.5 356.8 82.9 356.8 72.1 358.2 72.7" class="st11"/></g></g><g><polygon points="290.6 27 282.5 23.2 282.5 14.2 290.6 18.3" class="st11"/></g><g><polygon points="361.6 62.2 353.5 58 353.5 49 361.6 53.2" class="st11"/></g><g><polygon points="290.6 79.7 282.5 76.3 282.5 67.3 290.6 70.6" class="st11"/></g><g><polygon points="361.6 104.2 353.5 101.8 353.5 92.8 361.6 95.7" class="st11"/></g></g><g><path fill="#047fb5" d="M373.5,117.4c-3.2-1.7-7.6-0.1-7.7-0.1c-0.9-1-2.1-1.9-3.3-2.5c-2.5-1.3-5.6-2.1-8.4-1.8H354 c-0.2-0.1-1.3-2.7-4.9-2.7c-2.7-4.3-8-9.8-14.5-10.7c-0.9-0.1-1.7-0.2-2.6-0.2c0.1-0.5,0.2-1,0.3-1.5c0.1-3.3-1-6.5-3.1-9.6 c-1-1.7-2.4-3.4-4.1-4.8c-3.3-2.8-6.6-4.8-10.9-6.6c-1-0.4-1.9-0.8-2.9-1.2c-3.2-1.3-6.5-1.9-9.8-1.9c-2.8-0.4-5.5-0.2-8.1,0.4 c-0.3-3.3-1.4-6.7-3.7-10c-6.7-9.9-19-15-32-15.5c-4.5-0.2-8.8,0.3-13,1.1c-4.1-5.7-10.9-10.3-19.5-12.2c-7-1.5-14.3-0.6-19.9,2 c-0.1-5.5-3.2-10.5-8.9-14.8c-4.2-3.1-9.3-6.1-14.6-7.4c-7.6-1.9-15.8-2.3-23-1c-1.3,0.2-2.6,0.6-3.7,1c-2.2-0.9-4.5-1.9-6.8-2.8 c-21.8-8.8-44-7.3-48.6,1.5C99.1,9.8,96,4.9,91.4,0H32.9c101.3,44.8,132.5,48.6,244.8,89.6c11,4,21,7.6,31,10.8 c5,1.9,10.1,3.8,15.2,5.8l54.1,16.7C378.1,122.5,376.8,119.1,373.5,117.4z"/><path d="M133,39c15.8,6.8,139.5,48.8,185.7,64.8c-0.5-1.3-4.4-6.1-6.1-7.5c-3.3-2.8-6.6-4.8-10.9-6.6 c-1-0.4-1.9-0.8-2.9-1.2c-3.2-1.3-6.5-1.9-9.8-1.9c-2.8-0.4-5.5-0.2-8.1,0.4c-0.3-3.3-1.4-6.7-3.7-10c-6.7-9.9-19-15-32-15.5 c-4.5-0.2-8.8,0.3-13,1.1c-4.1-5.7-10.9-10.3-19.5-12.2c-7-1.5-14.3-0.6-19.9,2c-0.1-5.5-3.2-10.5-8.9-14.8 c-4.2-3.1-9.2-6.4-14.6-7.4C148,26,134.6,37.9,133,39z" class="st13"/></g><g><g><g><path d="M1372.6,33.6c0,76.9,0,135.8,0,212.7c0.1,9.5-7.1,17.4-16.8,17.1c-88.6-2.7-162.2-7.5-250.8-9.8 c-8.9-0.2-16.2-7.8-16.2-15.9c0-40.2-1.3-67.4-1.3-107.6C1186.9,94.8,1272,65,1372.6,33.6z" class="st14"/><linearGradient id="SVGID_3_" x1="1087.5" x2="1372.601" y1="-103.496" y2="-103.496" gradientTransform="matrix(1 0 0 1 0 252)" gradientUnits="userSpaceOnUse"><stop offset="0" stop-color="#002877"/><stop offset=".178" stop-color="#004185" stop-opacity=".893"/><stop offset=".557" stop-color="#0080a7" stop-opacity=".666"/><stop offset="1" stop-color="#00d1d4" stop-opacity=".4"/></linearGradient><path fill="url(#SVGID_3_)" d="M1372.6,33.6c0,76.9,0,135.8,0,212.7c0.1,9.5-7.1,17.4-16.8,17.1c-88.6-2.7-162.2-7.5-250.8-9.8 c-8.9-0.2-16.2-7.8-16.2-15.9c0-40.2-1.3-67.4-1.3-107.6C1186.9,94.8,1272,65,1372.6,33.6z" enable-background="new" opacity=".34"/><path d="M1087.6,130.1c0-2.7,0-4,0-6.8c0.4-8.9,6.1-17.2,14.3-20.6c89.2-33.6,164.4-62.4,254.9-92.5 c8.8-2.9,15.8,2.2,15.8,12.9c0,3.4,0,7,0,10.6L1087.6,130.1z" class="st8"/></g><path fill="#0f5996" d="M1359,9.6c5.9-1,9,1.9,9.6,2.5c2.5,2.3,4,6.1,4,11c0,3.4,0,7,0,10.6c0,76.9,0,135.8,0,212.7 c0.1,8.4-5.5,15.5-13.5,16.9c2.6,0.1,5.2,0.2,7.8,0.3c9.7,0.3,16.9-7.6,16.8-17.1c0-76.9,0-135.8,0-212.7c0-3.6,0-7.2,0-10.6 c0-5.3-1.7-9.3-4.6-11.6C1376.4,9.2,1367.9,8,1359,9.6z"/><path fill="#fff" d="M1209.2,127.1c-50.4,14.4-85.4,56.5-120.2,95.3c0-36.6-1.4-60.2-1.4-96.8c-0.4-10.3,5.7-19.7,15.4-23.2 c88.4-32.6,163.7-62.4,253.8-92.1c6.3-2.1,0,0,0,0c-31.7,9-50.4,37.8-68,63.4C1268.2,103.5,1245.6,116.6,1209.2,127.1z" enable-background="new" opacity=".07"/><path d="M1291.2,51.7c-48,16.7-82.1,26.7-129.8,44.3c-2.2,0.8-4-0.3-4-2.4l0,0c0-2.1,1.7-4.5,3.9-5.3 c47.7-17.9,81.9-28.2,130-45.2c2.3-0.8,4.1,0.5,4.1,2.9l0,0C1295.4,48.3,1293.5,50.9,1291.2,51.7z" class="st18"/><path fill="#0c5dad" d="M1267.7,57.6c-30.7,11-47.7,14.6-78.3,25.9c-1,0.4-1.8-0.1-1.8-1.1l0,0c0-1,0.8-2.1,1.8-2.4 c30.6-11.4,47.7-15.2,78.4-26.2c1-0.4,1.9,0.2,1.9,1.2l0,0C1269.6,56.1,1268.7,57.2,1267.7,57.6z"/></g></g><g><g><g><path d="M75.9,78.5c0,72.8,0,90.9,0,163.7c-0.1,9,6.8,16.5,15.9,16.2c83.8-2.5,153.6-7.1,237.4-9.3 c8.4-0.2,15.3-7.4,15.3-15.1c0-38.1,1.3-50.3,1.3-88.4L75.9,78.5z" class="st14"/><path fill="#0e72af" d="M345.8,145.7c0-2.5,0-1.8,0-4.5c-0.4-8.4-5.8-16.3-13.6-19.5L90.9,56.3c-8.4-2.8-15,2.1-15,12.2 c0,3.2,0,11,0,11L345.8,145.7z"/></g><path fill="#176599" d="M88.8,55.7c-5.6-1-8.5,1.8-9.1,2.3c-2.4,2.2-3.8,5.8-3.8,10.5c0,3.2,0,6.6,0,10c0,72.8,0,90.9,0,163.7 c-0.1,7.9,5.2,14.6,12.7,16c-2.5,0.1-15.2-1.1-18-3.6c-3.4-3-5.4-7.5-5.3-12.4c0-72.8,0-90.9,0-163.7c0-3.4,0-6.8,0-10 c0-5.1,1.7-8.8,4.4-10.9C72.4,55.4,80.5,54.2,88.8,55.7z"/></g><linearGradient id="SVGID_4_" x1="11901.364" x2="12182.568" y1="-72.228" y2="-96.831" gradientTransform="matrix(-1 0 0 1 12250.7666 252)" gradientUnits="userSpaceOnUse"><stop offset="0" stop-color="#002e6f"/><stop offset=".15" stop-color="#003272" stop-opacity=".91"/><stop offset=".307" stop-color="#003f79" stop-opacity=".816"/><stop offset=".468" stop-color="#005486" stop-opacity=".719"/><stop offset=".631" stop-color="#007199" stop-opacity=".622"/><stop offset=".795" stop-color="#0097b0" stop-opacity=".523"/><stop offset=".959" stop-color="#00c4cc" stop-opacity=".425"/><stop offset="1" stop-color="#00d1d4" stop-opacity=".4"/></linearGradient><path fill="url(#SVGID_4_)" d="M89.9,55.9c-7-2-13.9,3.3-13.9,10.6v175.8c-0.1,9,6.8,16.5,15.9,16.2c83.8-2.5,153.6-7.1,237.4-9.3 c8.4-0.2,15.3-7.4,15.3-15.1c0-32.5,0.9-61.5,1.2-92.4c0.1-9.5-6.2-18-15.4-20.5L89.9,55.9z" enable-background="new" opacity=".49"/><g opacity=".3"><path d="M110.5,142.1c0.4,0,0.8-0.1,1.1-0.4c0.4-0.3,0.6-0.8,0.5-1.3c0-1.2-1-2.4-2.2-2.7c-0.6-0.2-1.2,0-1.6,0.3 s-0.6,0.8-0.6,1.4c0,1,0.8,2.1,1.8,2.5l1.2,115.7v0.2l0.9,0.2L110.5,142.1L110.5,142.1z" class="st24"/><path d="M151.5,150.9c0.4,0,0.8-0.1,1.1-0.4c0.4-0.3,0.6-0.8,0.5-1.3c0-1.2-1-2.4-2.2-2.7c-0.6-0.2-1.2,0-1.6,0.3 c-0.4,0.3-0.6,0.8-0.6,1.4c0,1,0.8,2.1,1.8,2.5l1,105.7v0.2h0.9L151.5,150.9L151.5,150.9z" class="st24"/><path d="M229.3,139.2c0.4,0,0.8-0.1,1.1-0.4c0.4-0.3,0.6-0.8,0.5-1.3c0-1.2-1-2.4-2.2-2.7c-0.6-0.2-1.2,0-1.6,0.3 c-0.4,0.3-0.6,0.8-0.6,1.4c0,1,0.8,2.1,1.8,2.5l0.9,113.6v0.2l0.9,0.2L229.3,139.2L229.3,139.2z" class="st24"/><path d="M269.7,166.9c0.4,0,0.8-0.1,1.1-0.4c0.4-0.3,0.6-0.8,0.5-1.3c0-1.2-1-2.4-2.2-2.7c-0.6-0.2-1.2,0-1.6,0.3 s-0.6,0.8-0.6,1.4c0,1,0.8,2.1,1.8,2.5l-0.2,84.7v0.2l0.9,0.2L269.7,166.9L269.7,166.9z" class="st24"/><path d="M192.8,176.9c0.4-0.3,0.6-0.8,0.5-1.3c0-1.2-1-2.4-2.2-2.7c-0.6-0.2-1.2,0-1.6,0.3 c-0.4,0.3-0.6,0.8-0.6,1.4c0,1,0.8,2.1,1.8,2.5l1.4,77.4v0.2l0.9,0.2l-1.4-77.6l0,0C192.1,177.3,192.5,177.2,192.8,176.9z" class="st24"/><path d="M308.9,163.1c-0.6-0.2-1.2,0-1.6,0.3s-0.6,0.8-0.6,1.4c0,1,0.8,2.1,1.8,2.5l-0.1,82.3v0.2l0.9,0.2l0.1-82.5 l0,0c0.4,0,0.8-0.1,1.1-0.4c0.4-0.3,0.6-0.8,0.5-1.3l0,0C311,164.6,310.1,163.4,308.9,163.1z" class="st24"/></g><g><polygon points="168.4 128.6 107.9 114.9 107.9 112.5 168.4 126.2" class="st25"/><polygon points="153.7 118.3 107.9 107.8 107.9 105.3 153.7 115.9" class="st25"/></g><path d="M151.5,90.3c0,0,82.1,19.5,129.8,32.9c2.2,0.6,4-0.6,4-2.7l0,0c0-2.1-1.7-4.4-3.9-5l-130-33.9 c-2.3-0.6-4.1,0.8-4.1,3.2l0,0C147.3,87.2,149.2,89.7,151.5,90.3z" class="st18"/><path d="M175.1,93.6l78.1,20c1,0.3,1.8-0.3,1.9-1.2l0,0c0-1-0.8-2-1.7-2.3l-78.2-20.3c-1-0.3-1.9,0.3-1.9,1.4l0,0 C173.2,92.2,174.1,93.3,175.1,93.6z" class="st25"/></g><g><path fill="#0f2d70" d="M1372.4,51.2c-6.4,6.2-13.9,14.1-19.3,21c-5.4,6.8-9.7,13.9-15,20.6c-10.5,13.5-23.4,20.6-37.2,21.5 c-28,1.7-48.2-18.6-82.6,10.8c-33.8,28.9-45.9,74.9-67.2,90.8c-19.2,14.3-35.5,21.4-54.5,22.4c-8.5,0.4-0.2,5.3,16,0.1 s24.5-9.6,39.3-20.3c24.5-17.7,35.2-65.2,70.6-92.9c38.9-30.4,58,3.8,94.5-12.3c13.8-6.1,22.3-17.9,30.6-29.6 c7.1-10.1,16-19.6,24.9-28.3L1372.4,51.2z" enable-background="new" opacity=".27"/><g><path fill="#1c7cb7" d="M1361.7,36.6c-8.5,7.7-16.3,16.1-23.1,25.3c-5,6.6-8.9,13.7-13.8,20.3c-9.6,13.2-21.8,19.8-35.1,19.9 c-27,0.2-47.1-23.6-79.1,4.6c-31.7,27.7-38.6,76.5-59.6,95.9c-12.7,11.8-30.5,15-46.9,15c-14.7,0-23.4-5.6-33.2,0.8 c-1.6,1.1,0.1,3.4,1.6,2.2c7.7-6.2,24.2,1,40.6-0.7c16.2-1.7,27.6-4.8,38.6-15.1c25.8-24.1,29.7-72.5,62.8-98.9 c36.4-29,56,9.9,90.6-4.5c13.1-5.4,20.9-17.1,28.5-28.6c8.1-12.5,17.6-23.7,28.5-33.8C1367,34.6,1366.6,32.2,1361.7,36.6z"/></g></g><g><path fill="#02125e" fill-rule="evenodd" d="M1298.2,48.4V25.7c-10.3,10.4-22.8,4.8-30.5,12.9l0,0v-3.8c0-0.3-0.2-0.5-0.5-0.4l-0.6,0.1 c-0.3,0-0.5,0.3-0.5,0.6v25.3c-0.4,0-0.2,1.8-0.4,2.5c-0.2,0.7-0.2,1.7-0.2,2.1c0,0.1-0.2,0.8-0.4,1.6c0,0,0,0,0.1,0 c-1,2.1-3.9,6.2-4.1,6.5c-0.1-0.2-2.9-5.5-4.2-6.5c-2.4-1.7-6.8-1.9-6.8-1.9s-0.2-0.2-0.3-0.5c-0.1-0.3-0.1-1.4-0.1-1.4l0,0l0,0 V62c0.8-0.5,1.5-1.1,2-1.9c0.5-0.7,0.1-1.8-0.6-2.9c-0.1-0.2,0.4-0.7,0.3-0.8c-0.3-0.3-1.2-0.3-1.5-0.6c-1.1-1.2-2.4-2.2-3-2.3 c-0.9-0.5-2.5-0.1-3.4,0.5c-1.3,0.8-3.5,3.3-3.5,5.8c-0.1,2.5-0.8,3.3-2.1,6.4c-0.4,1-0.9,1.9-1.3,2.8c-1.7,2.2-3.1,4.1-3.6,5.3 c-1.9,4.6-3.1,9.2-2.3,13.7l0.1,10.8c2,1.6,4.7,2,7.5,1.8c0.2,0.2,0.4,0.5,0.7,0.8c-0.6,6.4-0.6,12.3-0.6,12.3s-1.8,12.2-3.3,22.3 l2-0.2l-0.2,1.4h-0.2l-1.5,2c-0.1,0.3-2.8,1.6-3.5,2.6s-0.1,1.9-0.1,1.9l8.4-3c0.6-0.2,1-0.9,0.9-1.5l0,0 c-0.1-0.6-0.6-1.2-0.6-1.2v-1.5l-0.7,0.1l0.3-1.2l0.5-0.1c5.2-11.2,4.3-20.9,4.3-20.9s1.3-3.2,2.9-7.4l0.4-1.1l0,0 c0.4-1.1,0.8-2.1,1.3-3.2c1,3.2,2.2,6.2,3.3,8c0,0-2.6,9.3-1.9,17.9l0.9-0.1l-0.3,1.5l0,0l-0.2,1.1c0,0-0.4,0.7-0.4,1.5 c0,0,0,0.3,0,0.7c0,0.8,0.8,1.4,1.5,1.1l8.5-4.1c0,0,0-0.4-1-0.8c-1-0.4-4.9,1-5.3,0.4c-0.3-0.5-0.6-0.5-0.6-0.5l0,0l0.1-1.1 l1.3-0.2c0,0,5.1-15.8,4.6-18.5c-0.5-2.8-2.7-11.2-4.1-16.3c0.2-0.1-0.9-4.4-0.9-4.4c1.1-3.1,0.5-11.2,0.5-11.2l-0.1-0.1 c0-0.1,0-0.1,0-0.2c0.4,0.5,1.4,1.3,3.6,2.5c0.8,0.5,1.6,0.6,2.4,0.5c1.3-0.2,2.3-1,2.7-2c0.9-2.2,1.6-4.5,2.1-6.4v54.5 c0,0.3,1.6-0.6,1.6-0.9V66.2c0.4-0.7,0.9-1.3,1-1.6c0.2-0.5,0.3-1.5,0.3-1.5s-0.6-2.3-1.3-1.8c0,0,0,0,0,0.1v-4 C1278.6,50.5,1284.5,56.5,1298.2,48.4z" clip-rule="evenodd" enable-background="new" opacity=".35"/><g><path d="M1362.6,130.7c-8.5-0.3-24.1-1.9-37.4-5.4c-18.5-4.9-36.3-12.3-36.3-12.3h-4.5c0,0-11.8,6.4-61.2,23.5 l-2.1,2.4l64.1,122.6l38.5,0.8c31-28.3,34.7-71.1,37-86.4C1363.7,156.1,1362.6,130.7,1362.6,130.7z" class="st29"/><g class="st30"><path fill="#fc8627" d="M1266.9,103.6L1266.9,103.6L1266.9,103.6z"/></g><path d="M1346.4,121.7c-8.5-0.3-24.3-2.6-37.6-6.1c-18.5-4.9-36.3-12.3-36.3-12.3h-4.5c0,0-11.8,17.4-61.2,34.5 l-2.1,2.4l24.8,121.7l42.2,21.3c62.1-21.6,69.6-86.2,72.6-105.9S1346.4,121.7,1346.4,121.7z" class="st32"/><path fill="#256eb7" d="M1346.4,121.7c-8.5-0.3-24.3-2.6-37.6-6.1c-18.5-4.9-36.3-12.3-36.3-12.3h-4.5c0,0-11.8,17.4-61.2,34.5 l-2.1,2.4l113.7-16.4l20-1.6L1346.4,121.7z"/><path d="M1338.2,122.1c-10.2-0.6-22.3-1.4-33.7-4.8c-19.4-5.8-36.5-13.7-36.5-13.7l0,0c0,0-14,19.3-63.4,36.5 c0,0-10.8,111.8,65,139.9l-0.3,0.1l0,0l0,0l0.3-0.1c0,0,33.4-10.2,53.8-54.7S1338.2,122.1,1338.2,122.1z" class="st34"/><path fill="none" stroke="#0c5dad" stroke-miterlimit="10" stroke-width="2" d="M1321.6,137.6c-22.3-1.3-52.3-15.3-52.3-15.3l0,0c0,0-19,16.9-51,28.6c0,0-5.3,87.7,51,110.5l0,0l0.2-0.1 c0,0,24.3-8,40.4-43.1S1321.6,137.6,1321.6,137.6z"/><path fill="#fff" d="M1271.7,283.2l-3.1-179.7c-10.6,11.4-29.9,23.5-62.2,34.5l-2.1,2.4c-1,13.7,0.8,47.5,7.7,72.2 C1225.7,254.1,1229.1,261.3,1271.7,283.2z" enable-background="new" opacity=".1"/></g><path d="M1383.8,221.5l-89.7,1.4c0,0,13.3-10.7,41.9-12.2l47.8-8.4L1383.8,221.5L1383.8,221.5z" class="st37"/><path d="M1440,164.1c-11.6,3.4-23,13.9-24.1,25.8c-1.6,0.9-0.2,0.3-0.2,0.3s-7.3-12.3-25-9.9s-24,15.5-24,15.5 c-3.8-1.7-8.3-2.5-13-2.1c-7.5,0.6-14.4,4-19.5,9.1c-5.9-3-12.6-4.6-20-4.3c-11.8,0.6-22.8,6-30.7,14.3 c53.8-4.1,104.6-7.1,156.4-9L1440,164.1z" class="st13"/></g><g><polygon points="1198.7 240.9 1173.6 236.9 1173.6 234.3 1198.7 238.3" class="st38"/></g><g><polygon points="1181.8 303.1 1152.9 298.4 1152.9 295.8 1181.8 300.5" class="st38"/></g><g><polygon points="990.4 279.7 955.6 275.1 955.6 272.5 990.4 277.1" class="st6"/><g><polygon points="962 315.8 928.8 306.3 928.8 303.7 962 313.3" class="st11"/><polygon points="1021.6 318.7 991.7 311 991.7 308.5 1021.6 316.2" class="st10"/></g><g><polygon points="867.1 302.6 841.8 294.3 841.7 291.7 866.9 300" class="st8"/></g></g><g><g><g><g><path d="M1208,284.3c-2.6-0.4-4-0.6-6.6-0.9c0-1.1,0-1.6,0-2.7c2.6,0.4,4,0.5,6.6,0.9 C1208,282.7,1208,283.3,1208,284.3z" class="st39"/><path d="M1224.2,286.8c-4.2-0.7-6.2-1-10.4-1.6c0-1.1,0-1.6,0-2.7c4.1,0.6,6.2,0.9,10.4,1.6 C1224.2,285.1,1224.2,285.7,1224.2,286.8z" class="st38"/></g><path d="M1215.5,302.4c-5.6-1-8.5-1.4-14.1-2.3c0-1,0-1.6,0-2.6c5.6,0.9,8.4,1.3,14.1,2.3 C1215.5,300.8,1215.5,301.4,1215.5,302.4z" class="st40"/><g><path d="M1212.4,310.2c-4.4-0.8-6.6-1.2-11-1.9c0-1,0-1.6,0-2.6c4.4,0.7,6.6,1.1,11,1.9 C1212.4,308.6,1212.4,309.1,1212.4,310.2z" class="st39"/><path d="M1221.6,311.9c-2.5-0.5-3.7-0.7-6.2-1.1c0-1.1,0-1.6,0-2.6c2.5,0.4,3.7,0.7,6.2,1.1 C1221.6,310.3,1221.6,310.8,1221.6,311.9z" class="st41"/></g><g><path d="M1205.7,325.1c-10-2-15-2.9-25-4.7c0-1,0-1.5,0-2.4c10,1.7,14.9,2.7,24.9,4.6 C1205.7,323.6,1205.7,324.1,1205.7,325.1z" class="st40"/><path d="M1239,332c-9.1-2-13.6-2.9-22.6-4.8c0-1,0-1.5,0-2.6c9,1.8,13.6,2.7,22.6,4.7 C1239,330.4,1239,331,1239,332z" class="st40"/></g><path d="M1218.5,335.6c-6.9-1.5-10.3-2.2-17.2-3.6c0-1,0-1.5,0-2.5c6.9,1.4,10.3,2.1,17.2,3.5 C1218.5,334.1,1218.5,334.6,1218.5,335.6z" class="st40"/><path d="M1207.3,341c-5.9-1.3-8.8-1.9-14.6-3.1c0-0.9,0-1.4,0-2.4c5.8,1.2,8.8,1.8,14.6,3 C1207.3,339.5,1207.3,340,1207.3,341z" class="st41"/><path d="M1196.2,346.1c-6.2-1.3-9.4-2-15.6-3.3c0-0.9,0-1.4,0-2.3c6.2,1.3,9.3,1.9,15.6,3.2 C1196.2,344.7,1196.2,345.1,1196.2,346.1z" class="st40"/><g><path d="M1210.6,361.6c-3.5-0.8-5.2-0.3-8.7-1.1c0-0.9,0-1.3,0-2.2c3.5,0.8,5.2,0.3,8.7,1.1 C1210.6,360.3,1210.6,360.7,1210.6,361.6z" class="st39"/><path d="M1227.1,365.5c-4.8-1.1-7.2-1.7-12-2.8c0-0.9,0-1.3,0-2.2c4.8,1.1,7.2,1.7,12,2.8 C1227.1,364.1,1227.1,364.6,1227.1,365.5z" class="st40"/></g></g><g><path fill="#02125e" d="M1266.4,230.5c0-7.3-3.9-10.2-8.8-10.7l-168.8,4.9l-0.2,18.4c-3.7-0.4,143.2,19.1,145.7,21.2l32.1,15.8 v-23.3C1266.4,254.5,1266.4,232.9,1266.4,230.5z" enable-background="new" opacity=".35"/><path d="M1254.5,237.3c0-7.7-4.1-10.7-9.2-11.2l-156.4,1.3c-5-0.4-9.2,1.5-9.2,8.4c0,2.4,0,6.9,0,6.9 c-0.1,33,7.6,57.1,7.5,88.1c0,4.3,4,9.1,9,10.1c0,0,138.3,41.6,142.1,42.8c3.8,1.1,8.5-0.3,11.3-1.7c2.5-1.3,4.9-2.8,4.9-6.5 c0-40.3,0-78.6,0.1-118.9l0,0C1254.5,252.2,1254.5,237.7,1254.5,237.3z" class="st43"/><path d="M1245.9,247.6c0,42.3,0,85.6-0.1,127.9c0,5.8-4.2,9.1-9.3,7.9l-149-42.5c-5-1-9-5.9-9-10.1 c0.2-32,0.4-53,0.5-85.1" class="st6"/><path d="M1079.1,245.6c0-2.4,0-5.4,0-7.8c0-6.9,4.2-9.7,9.2-9.3l148.4-0.7c5.1,0.5,9.2,3.6,9.2,11.2 c0,2.4,0,6.2,0,8.6" class="st44"/><path d="M1245.9,247.6c0,42.3,0,85.6-0.1,127.9c0,5.8-4.2,9.1-9.3,7.9l-149-42.5c-5-1-9-5.9-9-10.1 c0.2-32,0.4-53,0.5-85.1" class="st6"/><path d="M1079.1,245.6c0-2.4,0-5.4,0-7.8c0-6.9,4.2-9.7,9.2-9.3l148.4-0.7c5.1,0.5,9.2,3.6,9.2,11.2 c0,2.4,0,6.2,0,8.6" class="st44"/><g class="st45"><path d="M1158.8,319l-66.2-12c-0.7-0.1-1.3-0.8-1.3-1.6c0.1-16.3,0.2-30.7,0.3-47c0-0.9,0.6-1.6,1.3-1.5l66.2,2.6 c0.7,0.1,1.3,0.9,1.3,1.9c-0.1,18.4-0.2,37.8-0.3,56.3C1160.1,318.5,1159.5,319.1,1158.8,319z" class="st46"/><line x1="1233.5" x2="1172.5" y1="338" y2="325" class="st46"/><line x1="1172.7" x2="1233.5" y1="260.5" y2="262.2" class="st46"/><line x1="1172.7" x2="1233.5" y1="273.4" y2="277.1" class="st46"/><line x1="1172.7" x2="1233.5" y1="287.4" y2="295.2" class="st46"/><line x1="1172.6" x2="1233.5" y1="313.6" y2="323.5" class="st46"/><line x1="1172.6" x2="1233.5" y1="301.2" y2="310.1" class="st46"/><line x1="1233.4" x2="1172.3" y1="365.7" y2="350.8" class="st46"/><line x1="1172.4" x2="1233.5" y1="336.1" y2="351.3" class="st46"/><line x1="1159.3" x2="1091.5" y1="347.1" y2="330.1" class="st46"/><line x1="1091.6" x2="1159.4" y1="318.7" y2="333.5" class="st46"/></g></g><path d="M1156,282.2c-30.8-1.5-59.2,18-77.3,39.5c0.2-29,0.3-49.1,0.4-80.1c-0.2-9.6,2.4-13.5,9.9-13l147.7-0.7 c3.6,0.3,0,0,0,0C1201.3,222.6,1194.5,284,1156,282.2z" class="st47"/><path d="M1200.7,241.2l-77.9-0.7c-1-0.1-1.9-0.5-1.8-2c0-0.3,0-0.5,0-0.9c0-1.5,0.9-2.6,2-2.5 c26-0.3,51.9-0.6,77.9-0.5c1.1,0.1,1.9,1.5,1.8,3c0,0.4,0,0.5,0,0.9C1202.6,240.2,1201.7,241.3,1200.7,241.2z" class="st48"/><g><path d="M1088.5,240.5L1088.5,240.5c-1.2-0.1-2.3-1.5-2.3-3.2l0,0c0-1.7,1-3.1,2.3-3l0,0c1.2,0.1,2.3,1.5,2.3,3.2 l0,0C1090.8,239.2,1089.7,240.6,1088.5,240.5z" class="st49"/><path d="M1096.5,240.8L1096.5,240.8c-1.2,0-2.3-1.5-2.2-3.2l0,0c0-1.7,1-3.1,2.3-3l0,0c1.2,0.1,2.3,1.5,2.2,3.2 l0,0C1098.8,239.4,1097.8,240.8,1096.5,240.8z" class="st50"/><path d="M1104.4,241L1104.4,241c-1.2,0-2.3-1.5-2.2-3.2l0,0c0-1.7,1-3.1,2.3-3.1l0,0c1.2,0,2.3,1.5,2.2,3.2l0,0 C1106.7,239.6,1105.6,240.9,1104.4,241z" class="st51"/></g><path d="M1187.9,239.1c-16.5,0-33-0.2-49.5-0.1c-0.5-0.1-0.8-0.4-0.8-1c0-0.2,0-0.2,0-0.4c0-0.7,0.5-1.1,0.9-1.1 c16.5-0.2,33-0.3,49.5-0.3c0.5,0.1,0.8,0.7,0.8,1.4c0,0.2,0,0.2,0,0.4C1188.8,238.7,1188.4,239.2,1187.9,239.1z" class="st52"/><g><path d="M1155.9,311.9l-76.9-12c0.1-11.9,0.1-22.1,0.2-34.1c21.1,1.5,54,1.8,75.1,3.6c3.4,0.3,3.1,1.4,3.1,3.7 c-0.1,10.4-0.1,27-0.2,37.4C1157.2,311.4,1156.6,312,1155.9,311.9z" class="st53"/><path d="M1150,306.1c-25.9-3.8-52-8.7-77.9-11.8c-0.7-0.1-1.3-0.8-1.3-1.6c0-11.2,0.2-20.6,0.2-31.8 c0-0.9,1.8-2.4,3.7-2.2l77.2,4.3c0.7,0.1,1.3,0.9,1.3,1.9c-0.1,13-0.2,26.4-0.2,39.4c0,0.6-0.7,1.1-1.2,1.3 C1151.6,305.6,1150.3,306.1,1150,306.1z" class="st11"/><path d="M1149.7,306.1l-77.6-11.8c-0.7-0.1-1.3-0.8-1.3-1.6c0-10.8,0.1-20.6,0.1-31.4c0-0.9,0.6-1.6,1.3-1.5 l77.7,4.6c0.7,0.1,1.3,0.9,1.3,1.9c-0.1,12.5-0.1,25.9-0.2,38.4C1151,305.5,1150.4,306.2,1149.7,306.1z" class="st54"/><g><polygon points="1139.9 276.3 1079.9 271.9 1079.9 269.7 1139.9 273.9" class="st6"/><polygon points="1139.8 285.6 1079.9 279.9 1079.9 277.7 1139.9 283.3" class="st6"/><path d="M1139.8,294.6l-60-7.7c0-0.8,0-1.3,0-2.1l60,7.6C1139.8,293.3,1139.8,293.7,1139.8,294.6z" class="st6"/></g></g><g><path d="M1245.9,336.1c-5.3-1.2-7.9-1.8-13.2-2.9c0-1,0-1.5,0-2.6c5.3,1.1,7.9,1.7,13.2,2.9 C1245.9,334.6,1245.9,335.1,1245.9,336.1z" class="st53"/><polygon fill="#90e1f4" points="1267.7 337.7 1231.3 330.2 1231.3 327.6 1267.7 335"/></g><g><polygon fill="#004b92" points="1245.9 272 1220.9 270.4 1220.9 267.7 1245.9 269.2" enable-background="new" opacity=".14"/><polygon points="1267.7 270 1219.5 268 1219.5 265.2 1267.7 267" class="st54"/></g><g><path d="M1223.7,330.1c-17-3.4-34.1-5.6-51.2-8.5c-1.3-0.2-2.4,0.9-2.4,2.6c-0.1,11.1-0.1,17.5-0.2,28.7 c0,1.5,1.3,2.9,2.7,3.2l51.4,13.4c1.3,0.3,2.4-0.7,2.4-2.2c-0.1-11.8-0.2-21.7-0.3-33.5C1226.1,332,1225.1,330.4,1223.7,330.1z" class="st53"/><path d="M1217.2,321.7l-51.3-8.3c-1.3-0.2-2.4,1-2.4,2.6c-0.1,11.4-0.1,18.1-0.2,29.5c0,1.5,1.3,3,2.7,3.3 l51.4,12.4c1.3,0.3,2.4-0.7,2.4-2.3c-0.1-12.1-0.2-21.3-0.3-33.5C1219.6,323.6,1218.5,321.9,1217.2,321.7z" class="st11"/><path d="M1218.5,361c0.1-0.3,0.2-0.6,0.2-1c-0.1-12.1-0.2-21.2-0.3-33.3c0-1.8-1-3.4-2.3-3.7l-51.3-8.3 c-0.4-0.1-0.8,0-1.1,0.2c0.4-1.1,1.2-1.7,2.2-1.6l52.3,8.3c1.3,0.3,2.4,1.9,2.3,3.7c0.1,12.1,0.2,21.3,0.3,33.5 C1220.8,359.9,1219.3,360.7,1218.5,361z" class="st57"/><path d="M1191.1,328.5c-9-1.7-13.5-2.5-22.5-4.1c0-0.8,0-2,0-2l22.5,4.1C1191,326.4,1191.1,327.7,1191.1,328.5z" class="st6"/><path d="M1179.9,333.1c-4.5-0.9-6.7-1.3-11.2-2.1c0-0.8,0-1.2,0-2c4.5,0.8,6.7,1.2,11.2,2.1 C1179.8,331.9,1179.8,332.3,1179.9,333.1z" class="st6"/><path d="M1166.3,344.5c0,0,3.9-6.7,8.3-6.5c1.5,0.1,2.8,1.7,3.9,3.1c1.3,1.8,2.8,3.6,4.6,4.3 c2.2,0.9,4.3,1,6.3,0.1c1.7-0.8,3.4-2.6,4.6-4.2c1.1-1.6,1.8-3.9,3.3-5c0.3-0.2,0.6-0.4,0.9-0.3c0.6,0,1.1,0.6,1.5,1.2 c1.1,1.6,1.4,3.6,2,5.5s1.5,3.9,2.9,4.6c1.9,0.9,3.6-0.8,4.5-2.7c0.9-1.9,1.7-4.3,3.3-5.2c0.5-0.3,1.2-0.4,1.7,0.2 c0.6,0.6,0.7,1.6,0.8,2.4c0.3,3.6,0.5,13.4,0.5,13.4L1166.3,344.5z" class="st58"/></g><g><path fill="#111c3a" d="M1237.7,309.3c0,1.6-0.9,2.6-2,2.4l-54.5-7.9c-1-0.1-1.8-1.4-1.8-2.7c0-6.9,0-9.5,0.1-16.5 c0-1.4,0.9-2.5,1.9-2.4l54.6,4.5c1.3,0.2,2.2,1.2,2.2,2.5C1238.1,296.7,1237.8,301.4,1237.7,309.3z" enable-background="new" opacity=".2"/><linearGradient id="SVGID_5_" x1="1399.383" x2="1342.864" y1="-626.703" y2="-644.035" gradientTransform="matrix(1 0.1403 0.1584 -0.9778 -66.8335 -522.7906)" gradientUnits="userSpaceOnUse"><stop offset="0" stop-color="#eef4fe"/><stop offset=".466" stop-color="#f8fbff"/><stop offset="1" stop-color="#fff"/></linearGradient><path fill="url(#SVGID_5_)" d="M1231.1,305.2c-18.3-3.1-36.6-4.9-55-7.3c-1-0.1-1.8-1.4-1.8-2.8c0.1-7.2,0.2-9,0.3-16.3 c0-1.4,0.9-2.5,1.9-2.4c18.4,1.9,54.9,4,54.9,4c1,0.1,1.9,1.5,1.8,3.1c-0.1,7.9-0.1,11.6-0.2,19.4 C1233,304.3,1232.2,305.4,1231.1,305.2z"/><path d="M1231.8,305.1c0.1-0.4,0.2-0.8,0.2-1.3c0.1-7.7,0.1-12.4,0.2-20.3c0-1.5-0.8-1.9-1.8-2.1l-54.9-4.1 c-0.2,0-0.4,0-0.6,0.1c0.3-0.8,0.9-1.3,1.6-1.2l54.9,4c1,0.1,1.9,1.5,1.8,3.1c-0.1,7.9-0.1,12.4-0.2,20.2 C1233,304.7,1232.5,304.9,1231.8,305.1z" class="st57"/><g><path id="XMLID_8_" fill="#647f99" d="M1188.8,289.6c0,3.4-1.9,4.9-4.3,4.6s-4.3-2.3-4.3-5.6c0-3.3,1.9-5.8,4.3-5.5 C1186.8,283.3,1188.8,286.2,1188.8,289.6z"/></g><path d="M1224.3,289.8l-29.5-3.1v-2.2l29.6,3.1C1224.3,287.6,1224.3,288.9,1224.3,289.8z" class="st62"/><polygon points="1216.5 296.6 1194.8 294 1194.8 291.9 1216.5 294.4" class="st62"/></g></g></g><g><path d="M1247.5,119.6l0.1-96.6c0-0.3,0.2-0.5,0.5-0.6l0.6-0.1c0.3,0,0.5,0.2,0.5,0.4l-0.1,95.9 C1249.1,118.9,1247.5,119.8,1247.5,119.6z" class="st6"/><g><path d="M1279.6,36.2c-14.1,8.3-19,1.7-30.5,9.3v-19c7.7-8.2,20.2-2.5,30.5-12.9V36.2z" class="st11"/><g><g><g><g><g><g><g><g><defs><path id="SVGID_6_" d="M1271.5,23.9c-0.6,0.2-1.1,0.7-1.3,1.2v0.1L1269,28l-1.5,3.5l1,1.6l0.1,0.1 c0.2,0.2,0.4,0.4,0.7,0.4c0.3-0.2,0.5-0.5,0.7-0.8l0.1-0.1l3-6.8l0.1-0.2c0.1-0.2,0.1-0.4,0.1-0.7 C1273.1,24.1,1272.4,23.7,1271.5,23.9z"/></defs><clipPath id="SVGID_7_"><use overflow="visible" xlink:href="#SVGID_6_"/></clipPath><g clip-path="url(#SVGID_7_)"><g><g><g><g><g><g><defs><polygon id="SVGID_8_" points="1227.8 1823.8 1594.3 1708.1 1593.5 -93.2 1227 22.5"/></defs><clipPath id="SVGID_9_"><use overflow="visible" xlink:href="#SVGID_8_"/></clipPath><polygon fill="#ff5000" points="1266.2 24.4 1274.4 21.8 1274.4 33.2 1266.2 35.8" clip-path="url(#SVGID_9_)"/></g></g></g></g></g></g></g></g></g></g></g></g></g></g><g><g><g><g><g><g><g><defs><path id="SVGID_10_" d="M1262.2,29.6l-1-1.6v-0.1c-0.2-0.2-0.4-0.4-0.7-0.4c-0.3,0.2-0.5,0.5-0.7,0.8l-0.1,0.1l-3,6.8 l-0.1,0.2c-0.1,0.2-0.1,0.4-0.1,0.7c0,0.8,0.7,1.3,1.5,1c0.6-0.2,1.1-0.7,1.3-1.2v-0.1l1.2-2.8L1262.2,29.6z"/></defs><clipPath id="SVGID_11_"><use overflow="visible" xlink:href="#SVGID_10_"/></clipPath><g clip-path="url(#SVGID_11_)"><g><g><g><g><g><g><defs><polygon id="SVGID_12_" points="1227.8 1823.8 1594.3 1708.1 1593.5 -93.2 1227 22.5"/></defs><clipPath id="SVGID_13_"><use overflow="visible" xlink:href="#SVGID_12_"/></clipPath><polygon fill="#ff5000" points="1255.2 27.8 1263.4 25.2 1263.4 36.7 1255.2 39.3" clip-path="url(#SVGID_13_)"/></g></g></g></g></g></g></g></g></g></g></g></g></g></g><g><g><g><g><g><g><g><defs><path id="SVGID_14_" d="M1262.3,29.7l-1-1.6V28c-0.2-0.2-0.4-0.4-0.7-0.4c0.1-0.1,0.2-0.1,0.3-0.2 c0.1-0.1,0.3-0.1,0.4-0.2l2.1-0.6l0,0l0,0c0.6-0.2,1.1,0,1.3,0.4l0.1,0.1l2.7,4.5l1,1.6l0.1,0.1 c0.2,0.2,0.4,0.4,0.7,0.4c-0.1,0.1-0.2,0.1-0.3,0.2c-0.1,0.1-0.3,0.1-0.4,0.2l-2.1,0.7l0,0l0,0c-0.6,0.2-1.1,0-1.3-0.4 l-0.1-0.1L1262.3,29.7z"/></defs><clipPath id="SVGID_15_"><use overflow="visible" xlink:href="#SVGID_14_"/></clipPath><g clip-path="url(#SVGID_15_)"><polygon fill="#ff8c44" points="1259.3 26.5 1270.5 23 1270.5 34.7 1259.3 38.2"/></g></g></g></g></g></g></g></g></g><g><g><path d="M1249,53.2c0,0-0.2,1.6-1,1.6c-0.2-0.4-0.2-2.1-0.6-2.1s-0.1,1.8-0.2,2.5s-0.1,1.7,0,2.1 c0,0.1-0.1,0.8-0.3,1.7c0,0,1.5,0.7,1.6,0.6c0.2-0.3,1.6-2.7,1.8-3.1c0.2-0.5,0.2-1.5,0.2-1.5S1249.7,52.7,1249,53.2z" class="st69"/></g><g><g><g><path d="M1222.5,94.5c0.2-0.2,1.1-1.8,0.4-2.8c-0.3-0.5,0.8-1.4,0.6-1.6c-0.4-0.5-2.1-2-2.6-2.6l-3,0.6 c0,0.3,1.5,2.4,1.7,2.8s0.9,1.5,1.4,1.9C1221.7,93.2,1222.2,94.7,1222.5,94.5z" class="st69"/></g><path d="M1229.4,53.1l0.2,2.4l-3.5,0.6c0,0,0.2-0.2,0.1-1.4s-0.6-1.7-0.6-1.7s1.7-0.9,2.6-0.9 C1229,52.1,1229.4,53.1,1229.4,53.1z" class="st69"/><g><path d="M1224.8,125.7l-0.3,3.4c0,0-0.9,1.3-1.5,1.5s-1.1-1.2-1.1-1.2l0.1-2.7L1224.8,125.7z" class="st70"/><path fill="#51d4f2" fill-rule="evenodd" d="M1236.4,79.8l-5.4,17.9l-2.3,7.9c0,0-0.3,12-3.5,21.4l-5.2,1.2c0.2-10.2,2.4-21.6,2.4-21.6 c-0.1-14.3,0.2-23.3,0.2-23.3L1236.4,79.8z" clip-rule="evenodd"/><path fill="#00bbda" fill-rule="evenodd" d="M1236.4,80c-1.1,4.1-7.8,25.5-7.8,25.5s0.5-8.5-0.6-23.3L1236.4,80z" clip-rule="evenodd" enable-background="new" opacity=".5"/><path d="M1237.6,120.1l0.1,2.2c0,0-0.3,0.7-0.8,0.8c-0.5,0.1-1.7-0.1-1.7-0.1l0.2-2.1L1237.6,120.1z" class="st70"/><path fill="#6beefc" fill-rule="evenodd" d="M1234.5,121.5l4.4-1.1c0,0,3.6-18.5,2.8-21.1c-1.3-3.9-5.4-18.9-5.4-18.9l-9.3,1.7c0,0,5,15.4,7.8,20 C1234.8,102.2,1233.9,113.6,1234.5,121.5z" clip-rule="evenodd"/><path d="M1225.2,128l0.1,1.5c0,0,0.5,0.5,0.7,1.1l0,0c0.2,0.6-0.1,1.3-0.7,1.6l-8,3.1c0,0-0.7-0.9-0.1-1.9 s3.1-1.8,3.2-2.1l1.2-2.1L1225.2,128z" class="st74"/><path d="M1235,122l-0.2,1.1c0,0-0.4,0.7-0.4,1.5c0,0,0,0.3,0,0.7c0,0.8,0.8,1.4,1.5,1.1l8.2-4 c0,0,0.2-0.8-0.9-1.2c-1-0.4-4.8,1.3-5.1,0.7c-0.2-0.4-0.2-0.6-0.2-0.6C1238.1,121.3,1235,122,1235,122z" class="st74"/></g><path fill="#ff560b" fill-rule="evenodd" d="M1225.7,56.9c0,0-1.7,0.5-3.9,2.2c-0.4,0.3-3.2,2.1-4.6,4.3c-0.9,1.5-3.2,13.4-2.9,15.5 c0.6,3.8,2.9,10.9,3.7,10.9l3.5-2c0,0-1.9-9.2-1.9-9.5c0-0.2,0.2-8.2,0.6-8.9c0,0.1,0.7,9.2,2.3,13.9l13.8-2.9 c0.8-4.3-0.1-9.8-0.3-12c0.4,0.5,1.5,3.1,3.8,4.1c2.2,1.1,4.7-0.9,5.9-2.8c1.1-1.9,3.1-9.6,3.2-10.6c0,0-2.7-0.7-2.8-0.5 c-0.6,1.9-4.4,7.3-4.6,7.3c0,0-3.2-7.1-4.7-8c-2.5-1.6-7-1.4-7-1.4s-0.2-0.1-0.3-0.5c-0.1-0.3-0.2-1.4-0.2-1.4l-3.4,0.7 c0,0-0.1,0.4-0.2,0.8C1225.9,56.5,1225.7,56.9,1225.7,56.9z" clip-rule="evenodd"/><g><path d="M1225.8,45.3c0.5-0.1,2.1,0.9,3.4,2.1c0.3,0.3,1.2,0.2,1.5,0.5c0.1,0.1-0.3,0.7-0.2,0.9 c0.8,1,1.2,2.1,0.8,2.8c-0.9,1.7-2.9,3.2-5.2,2.6c0,0-2.6-0.6-2.8-0.7C1223,53.5,1225,45.4,1225.8,45.3z" class="st69"/><path d="M1227.8,49.5c-0.3-0.3-1.5,0-1.1,0.7c0.1,0.2,0.5,0.8,1,1c0.4,0.1,0.9,0.3,1.3-0.1 C1229.2,50.8,1228.2,49.9,1227.8,49.5z" class="st69"/></g><path fill="#333435" d="M1228.4,47.9c0.2,0.2,0.4,0.3,0.4,0.4c0,0.1-0.2,0-0.5-0.2c-0.2-0.2-0.4-0.3-0.4-0.4 C1227.9,47.7,1228.2,47.8,1228.4,47.9z"/><path fill="#152744" fill-rule="evenodd" d="M1236.3,80.4l-3,0.6c3.2-2.2,1.4-14.1,1.4-14.1l1.5,1.7C1236.2,68.7,1237.5,77.7,1236.3,80.4z" clip-rule="evenodd" enable-background="new" opacity=".15"/><g opacity=".28"><g><g><g><g><g><g><defs><path id="SVGID_16_" d="M1225.7,56.9c0,0-1.7,0.5-3.9,2.2c-0.4,0.3-3.2,2.1-4.6,4.3c-0.9,1.5-3.2,13.4-2.9,15.5 c0.6,3.8,2.9,10.9,3.7,10.9l3.5-2c0,0-1.9-9.2-1.9-9.5c0-0.2,0-7.6,0.4-8.3c0,0.1,0.8,8.5,2.5,13.2l13.8-2.9 c0.8-4.3-0.1-9.8-0.3-12c0.4,0.5,1.5,3.1,3.8,4.1c2.2,1.1,4.3-1.1,5.4-2.9c2.4-5,3.5-9.5,3.7-10.5 c0,0-1.8-0.7-1.9-0.5c-0.6,1.9-5.4,7.2-5.5,7.3c0,0-3.2-7.1-4.7-8c-2.5-1.6-7-1.4-7-1.4s-0.2-0.1-0.3-0.5 c-0.1-0.3-0.2-1.4-0.2-1.4l-3.4,0.7c0,0-0.1,0.4-0.2,0.8C1225.9,56.5,1225.7,56.9,1225.7,56.9z"/></defs><clipPath id="SVGID_17_"><use overflow="visible" xlink:href="#SVGID_16_"/></clipPath><g clip-path="url(#SVGID_17_)" opacity=".3"><path fill="#152744" fill-rule="evenodd" d="M1212.2,80.9c-1.2-4.4-0.2-9.2,1.3-13.9c1.4-4.3,13.1-19.1,14.2-16c1,2.7,0.5,4.8-1,6.1 c-0.8,0.7-3.9,2.6-4.6,6.2c-0.8,4,0.4,23.9,14.2,16.7c6.1-3.2,3.3,2.3,3.3,2.7c-0.1,0.6-0.7,0.9-1.2,1.2 c-4.2,2.3-8.1,5.3-12.4,7.3s-9.4,2.8-12.9,0.4L1212.2,80.9z" clip-rule="evenodd"/></g></g></g></g></g></g></g><g><g><g><g><g><g><defs><path id="SVGID_18_" d="M1225.7,56.9c0,0-1.7,0.5-3.9,2.2c-0.4,0.3-3.2,2.1-4.6,4.3c-0.9,1.5-3.2,13.4-2.9,15.5 c0.6,3.8,2.9,10.9,3.7,10.9l3.5-2c0,0-1.9-9.2-1.9-9.5c0-0.2,0-7.6,0.4-8.3c0,0.1,0.8,8.5,2.5,13.2l13.8-2.9 c0.8-4.3-0.1-9.8-0.3-12c0.4,0.5,1.5,3.1,3.8,4.1c2.2,1.1,4.3-1.1,5.4-2.9c2.4-5,3.5-9.5,3.7-10.5 c0,0-1.8-0.7-1.9-0.5c-0.6,1.9-5.4,7.2-5.5,7.3c0,0-3.2-7.1-4.7-8c-2.5-1.6-7-1.4-7-1.4s-0.2-0.1-0.3-0.5 c-0.1-0.3-0.2-1.4-0.2-1.4l-3.4,0.7c0,0-0.1,0.4-0.2,0.8C1225.9,56.5,1225.7,56.9,1225.7,56.9z"/></defs><clipPath id="SVGID_19_"><use overflow="visible" xlink:href="#SVGID_18_"/></clipPath><path fill="#152744" fill-rule="evenodd" d="M1219.6,78.3l1.9,9.5c-1.9-1.8-3.4-9.1-3.4-9.1c1.1-3.5,2.1-9.3,2.1-9.3L1219.6,78.3z" clip-path="url(#SVGID_19_)" clip-rule="evenodd" enable-background="new" opacity=".3"/></g></g></g></g></g></g></g></g><g><path fill="#333435" fill-rule="evenodd" d="M1223.5,47.3c1.2-0.9,4.4,4,4.6,5.2c0,0.2,2.2,13.1,0.3,15.5c-4,5.1-10.9,4.5-13.1,3.5 c0,0,0.5-3.9,2-8.1c1.1-3.2,3.3-7.6,3.2-10.1C1220.3,50.8,1222.3,48.2,1223.5,47.3z" clip-rule="evenodd" enable-background="new" opacity=".21"/><path fill="#5f5c6b" fill-rule="evenodd" d="M1222.6,46.1c1.2-0.9,3.5-1.5,4.1,0.1c0.3,0.6,0.2,1.2,0.5,2.6c0.2,1.2,0.8,2.5,0.9,3.6 c0,0.2,1.5,12.5-0.4,15c-4,5.1-12.6,2.7-13,0.9c-0.3-1.3,1.5-5,3.2-9.7c1.1-3.2,1.8-4,1.7-6.5 C1219.4,49.6,1221.4,47,1222.6,46.1z" clip-rule="evenodd"/><path d="M1227.2,49.7c-0.3-0.3-1.3,0-1,0.6c0.1,0.2,0.5,0.7,0.9,0.9c0.3,0.1,0.8,0.3,1.2-0.1 C1228.5,51,1227.6,50.1,1227.2,49.7z" class="st69"/></g></g></g></g></g><g><path fill="#161769" d="M1153.9,114.4l-66.3,22.1v-36.3l70.8-27.7v35.1C1158.4,110.3,1156.4,113.3,1153.9,114.4z" enable-background="new" opacity=".3"/><path d="M1140.6,103.2l-70.3,23.2c-1.8,0.8-5.5-0.3-6.2-1.7c-0.3-0.5-0.4-1.1-0.4-1.9l7.6-48.3c0-2.7,2-4.7,4.5-5.7 l62.4-36.5c0,0,5.4,1.4,6,2s0.9,1.4,0.9,2.5v59.6C1145.1,99.2,1143.1,102.2,1140.6,103.2z" class="st6"/><path d="M1136.1,101l-68.8,24c-2.5,1-4.5-0.3-4.5-3V75.4c0-2.7,2-5.7,4.5-6.7l68.8-36c2.5-1,4.5,0.3,4.5,3v58.6 C1140.5,97,1138.5,100,1136.1,101z" class="st11"/><g opacity=".5"><path d="M1063.8,124.4c0,0.1,0.1,0.2,0.1,0.3C1063.9,124.6,1063.9,124.5,1063.8,124.4z" class="st86"/><path d="M1098.7,83.9c0.9-1.1,2.2-1.6,3.1-1.3l37.1,14.5l-37.1-19c-0.9-0.3-2.2,0.2-3.1,1.3l-34.9,45L1098.7,83.9z" class="st86"/></g><path d="M1098.9,91.9c0.9,0.3,2.2-0.2,3.1-1.3l38.1-56.7c-0.6-1.5-2.2,0.4-4.7,1.4L1067.3,71 c-2.1,0.9-3.9,1.8-3.8,1.8L1098.9,91.9z" class="st6"/><path d="M1098.9,87.4c0.9,0.3,2.2-0.2,3.1-1.3l38.1-52.2c-0.6-1.5-2.2-2-4.7-0.9l-68.1,35.7 c-2.7,1.3-3.9,4.1-3.9,4.1L1098.9,87.4z" class="st11"/></g><g><g><polygon points="891.9 80.3 898.5 62.2 879.9 67.1 885 70.5 878.6 76.3 882.6 80.7 889 74.8" class="st11"/></g><g><g><g><path d="M605.2,97.4c0.4,0,0.9-0.2,1.1-0.6c0.5-0.6,0.3-1.5-0.3-1.9c-0.6-0.5-1.5-0.3-1.9,0.3 c-0.5,0.6-0.3,1.5,0.3,2C604.6,97.3,604.9,97.4,605.2,97.4z" class="st6"/><path d="M604.8,264.6c-0.6,0.5-0.7,1.4-0.2,2c0.3,0.3,0.7,0.5,1.1,0.5c0.3,0,0.6-0.1,0.9-0.3 c0.6-0.5,0.7-1.4,0.2-2S605.4,264.1,604.8,264.6z" class="st6"/><path d="M609.5,107.2c-0.7-0.3-1.5,0-1.9,0.7c-0.3,0.7,0,1.5,0.7,1.9c0.2,0.1,0.4,0.1,0.6,0.1 c0.5,0,1.1-0.3,1.3-0.8C610.5,108.4,610.2,107.6,609.5,107.2z" class="st6"/><path d="M617.3,113.2c0.6,0,1.1-0.4,1.3-0.9c0.3-0.7-0.1-1.5-0.9-1.8l0,0c-0.7-0.3-1.5,0.1-1.8,0.8 c-0.3,0.7,0.1,1.5,0.9,1.8C617,113.2,617.2,113.2,617.3,113.2z" class="st6"/><path d="M617.8,83.1c0.5-0.6,0.5-1.4-0.1-2c-0.6-0.5-1.5-0.5-2,0.1s-0.5,1.5,0.1,2c0.3,0.2,0.6,0.4,1,0.4 C617.1,83.6,617.5,83.4,617.8,83.1z" class="st6"/><path d="M610.6,271.5c-0.6,0.5-0.6,1.4,0,2c0.3,0.3,0.6,0.4,1,0.4s0.7-0.1,1-0.4c0.6-0.5,0.6-1.4,0-2 C612,271,611.1,270.9,610.6,271.5z" class="st6"/><path d="M589.7,126.8c-0.7-0.2-1.5,0.1-1.8,0.9c-0.3,0.8,0.1,1.5,0.9,1.8c0.2,0.1,0.3,0.1,0.5,0.1 c0.6,0,1.1-0.4,1.3-0.9C590.8,127.8,590.4,127,589.7,126.8z" class="st6"/><path d="M592.9,118.4c-0.7-0.3-1.5,0.1-1.8,0.8l0,0c-0.3,0.7,0.1,1.5,0.8,1.8c0.2,0.1,0.4,0.1,0.5,0.1 c0.5,0,1.1-0.3,1.3-0.9C594,119.5,593.6,118.7,592.9,118.4z" class="st6"/><path d="M591.3,241.3c-0.7,0.3-1,1.1-0.7,1.8c0.2,0.5,0.8,0.8,1.3,0.8c0.2,0,0.4,0,0.6-0.1c0.7-0.3,1-1.1,0.7-1.8 C592.8,241.3,592,241,591.3,241.3z" class="st6"/><path d="M617,277.7c-0.5,0.6-0.4,1.5,0.2,2c0.3,0.2,0.6,0.3,0.9,0.3c0.4,0,0.8-0.2,1.1-0.5c0.5-0.6,0.4-1.5-0.1-2 C618.4,277.1,617.5,277.2,617,277.7z" class="st6"/><path d="M593.8,98.9c-0.6-0.4-1.5-0.2-1.9,0.4c-0.4,0.7-0.2,1.5,0.4,1.9l0,0c0.2,0.1,0.5,0.2,0.7,0.2 c0.5,0,0.9-0.2,1.2-0.7C594.7,100.2,594.5,99.3,593.8,98.9z" class="st6"/><path d="M599.6,257.2c-0.6,0.4-0.8,1.3-0.4,1.9c0.3,0.4,0.7,0.6,1.2,0.6c0.3,0,0.5-0.1,0.8-0.2 c0.6-0.4,0.8-1.3,0.4-1.9C601.1,257,600.3,256.8,599.6,257.2z" class="st6"/><path d="M596.7,110.2c-0.7-0.3-1.5-0.1-1.9,0.6c-0.3,0.7,0,1.5,0.6,1.9c0.2,0.1,0.4,0.1,0.6,0.1 c0.5,0,1-0.3,1.3-0.8C597.7,111.4,597.4,110.5,596.7,110.2z" class="st6"/><path d="M595.1,249.4c-0.7,0.4-0.9,1.2-0.6,1.9c0.3,0.5,0.7,0.7,1.2,0.7c0.2,0,0.5,0,0.7-0.2 c0.7-0.4,0.9-1.2,0.6-1.9C596.7,249.3,595.8,249.1,595.1,249.4z" class="st6"/><path d="M635.4,62.5c-0.6,0.5-0.7,1.4-0.2,2c0.3,0.3,0.7,0.5,1.1,0.5c0.3,0,0.6-0.1,0.9-0.3c0.6-0.5,0.7-1.4,0.2-2 S636,62,635.4,62.5z" class="st6"/><path d="M652.6,116.3c-0.8,0-1.4,0.7-1.4,1.4c0,0.8,0.6,1.4,1.4,1.4l0,0c0.8,0,1.4-0.7,1.4-1.4 C654,116.9,653.4,116.3,652.6,116.3z" class="st6"/><path d="M658.3,297.1c-0.8-0.2-1.5,0.3-1.7,1c-0.2,0.8,0.3,1.5,1,1.7c0.1,0,0.2,0,0.3,0c0.6,0,1.2-0.4,1.4-1.1 C659.5,298.1,659,297.3,658.3,297.1z" class="st6"/><path d="M649.7,294.7c-0.7-0.2-1.5,0.1-1.8,0.9c-0.2,0.7,0.2,1.5,0.9,1.8c0.1,0.1,0.3,0.1,0.4,0.1 c0.6,0,1.1-0.4,1.3-1C650.9,295.8,650.5,295,649.7,294.7z" class="st6"/><path d="M643.7,116.1c-0.8-0.1-1.4,0.5-1.5,1.3s0.5,1.4,1.3,1.5h0.1c0.7,0,1.3-0.6,1.4-1.3 C645.1,116.8,644.5,116.1,643.7,116.1z" class="st6"/><path d="M624,74.7c-0.5-0.6-1.4-0.6-2,0c-0.5,0.5-0.5,1.4,0,2c0.3,0.3,0.6,0.4,1,0.4s0.7-0.1,1-0.4 C624.5,76.1,624.5,75.3,624,74.7z" class="st6"/><path d="M657.5,46.7c-0.7,0.4-0.9,1.3-0.5,1.9c0.3,0.4,0.7,0.7,1.2,0.7c0.2,0,0.5-0.1,0.7-0.2 c0.7-0.4,0.9-1.3,0.5-1.9C659.1,46.6,658.2,46.3,657.5,46.7z" class="st6"/><path d="M661.5,115.7c-0.8,0.1-1.3,0.8-1.3,1.5c0.1,0.7,0.7,1.3,1.4,1.3h0.1c0.8-0.1,1.3-0.8,1.3-1.5 S662.2,115.7,661.5,115.7z" class="st6"/><path d="M626.3,113.1c-0.8-0.2-1.5,0.2-1.7,1s0.2,1.5,1,1.7c0.1,0,0.2,0,0.4,0c0.6,0,1.2-0.4,1.4-1 C627.5,114.1,627,113.3,626.3,113.1z" class="st6"/><path d="M624.1,283.3c-0.4,0.6-0.3,1.5,0.4,2c0.2,0.2,0.5,0.2,0.8,0.2c0.4,0,0.9-0.2,1.1-0.6 c0.4-0.6,0.3-1.5-0.4-1.9C625.4,282.6,624.5,282.7,624.1,283.3z" class="st6"/><path d="M641.4,291.6c-0.7-0.3-1.5,0-1.8,0.7s0,1.5,0.7,1.8c0.2,0.1,0.4,0.1,0.6,0.1c0.5,0,1.1-0.3,1.3-0.8 C642.5,292.7,642.2,291.9,641.4,291.6z" class="st6"/><path d="M633.5,287.7c-0.7-0.4-1.5-0.1-1.9,0.5c-0.4,0.7-0.1,1.5,0.6,1.9c0.2,0.1,0.4,0.2,0.7,0.2 c0.5,0,1-0.3,1.2-0.7C634.4,288.9,634.2,288,633.5,287.7z" class="st6"/><path d="M588,232.9c-0.7,0.3-1.1,1.1-0.9,1.8c0.2,0.6,0.7,0.9,1.3,0.9c0.1,0,0.3,0,0.5-0.1 c0.7-0.3,1.1-1.1,0.9-1.8C589.6,233,588.8,232.6,588,232.9z" class="st6"/><path d="M634.9,115c-0.8-0.1-1.5,0.4-1.6,1.1c-0.1,0.8,0.4,1.5,1.1,1.6c0.1,0,0.2,0,0.2,0c0.7,0,1.3-0.5,1.4-1.2 C636.2,115.8,635.7,115.1,634.9,115z" class="st6"/><path d="M564.2,76.4c-0.5,0.5-0.6,1.4,0,2c0.3,0.3,0.6,0.4,1,0.4s0.7-0.1,1-0.4c0.5-0.5,0.6-1.4,0-2 C565.7,75.9,564.8,75.9,564.2,76.4z" class="st6"/><path d="M579.2,172c0,0.8,0.5,1.4,1.3,1.5h0.1c0.7,0,1.4-0.6,1.4-1.3c0-0.8-0.5-1.4-1.3-1.5 C579.9,170.7,579.2,171.3,579.2,172z" class="st6"/><path d="M581.2,164.5c0.1,0,0.1,0,0.2,0c0.7,0,1.3-0.5,1.4-1.2c0.1-0.8-0.5-1.5-1.2-1.6c-0.8-0.1-1.5,0.5-1.5,1.2 C579.9,163.8,580.5,164.5,581.2,164.5z" class="st6"/><path d="M582.4,155.6c0.1,0,0.2,0,0.2,0c0.7,0,1.3-0.5,1.4-1.2c0.1-0.8-0.4-1.5-1.1-1.6c-0.8-0.1-1.5,0.4-1.6,1.1 C581.1,154.8,581.7,155.5,582.4,155.6z" class="st6"/><path d="M530.2,23.8c-0.7,0.3-1,1.1-0.7,1.8c0.2,0.5,0.7,0.9,1.3,0.9c0.2,0,0.4,0,0.5-0.1c0.7-0.3,1-1.1,0.8-1.8 C531.8,23.8,531,23.5,530.2,23.8z" class="st6"/><path d="M527,15.4c-0.7,0.3-1.1,1.1-0.8,1.8l0,0c0.2,0.6,0.8,0.9,1.3,0.9c0.2,0,0.3,0,0.5-0.1 c0.7-0.3,1.1-1.1,0.8-1.8S527.7,15.1,527,15.4z" class="st6"/><path d="M524.2,6.9c-0.7,0.2-1.1,1-0.9,1.8c0.2,0.6,0.7,1,1.3,1c0.1,0,0.3,0,0.4-0.1c0.7-0.2,1.2-1,0.9-1.8 C525.7,7,525,6.6,524.2,6.9z" class="st6"/><path d="M584.1,146.8c0.1,0,0.2,0,0.3,0c0.6,0,1.2-0.4,1.4-1.1l0,0c0.2-0.8-0.3-1.5-1.1-1.7s-1.5,0.3-1.7,1.1 C582.8,145.9,583.3,146.6,584.1,146.8z" class="st6"/><path d="M650.7,54.2c0.3,0,0.5-0.1,0.8-0.2c0.6-0.4,0.8-1.3,0.4-1.9c-0.4-0.6-1.3-0.8-2-0.4 c-0.6,0.4-0.8,1.3-0.4,1.9C649.8,54,650.2,54.2,650.7,54.2z" class="st6"/><path d="M643.3,59.4c0.3,0,0.6-0.1,0.8-0.3c0.6-0.5,0.8-1.3,0.3-2c-0.5-0.6-1.3-0.8-2-0.3c-0.6,0.5-0.7,1.3-0.3,2 C642.5,59.2,642.9,59.4,643.3,59.4z" class="st6"/><path d="M585.2,136.3c-0.2,0.8,0.2,1.5,1,1.7c0.1,0,0.2,0,0.4,0c0.6,0,1.2-0.4,1.4-1c0.2-0.7-0.2-1.5-1-1.7 C586.2,135.1,585.4,135.6,585.2,136.3z" class="st6"/><path d="M748.9,56.6c0.1,0.7,0.7,1.2,1.4,1.2c0.1,0,0.1,0,0.2,0c0.8-0.1,1.3-0.8,1.2-1.6s-0.8-1.3-1.6-1.2 C749.3,55.1,748.8,55.8,748.9,56.6z" class="st6"/><path d="M585.6,96.5c0.4,0,0.9-0.2,1.1-0.6c0.5-0.6,0.3-1.5-0.3-2c-0.6-0.4-1.5-0.3-2,0.3c-0.4,0.6-0.3,1.5,0.3,2 C585,96.4,585.3,96.5,585.6,96.5z" class="st6"/><path d="M610.7,90.3c0.4,0,0.8-0.2,1.1-0.5c0.5-0.6,0.4-1.5-0.1-2c-0.6-0.5-1.5-0.4-2,0.1c-0.5,0.6-0.4,1.5,0.1,2 C610.1,90.2,610.4,90.3,610.7,90.3z" class="st6"/><path d="M533.9,32c-0.7,0.3-1,1.2-0.7,1.9c0.2,0.5,0.7,0.8,1.3,0.8c0.2,0,0.4,0,0.6-0.1c0.7-0.3,1-1.2,0.6-1.9 C535.4,32,534.6,31.7,533.9,32z" class="st6"/><path d="M580.2,182.5L580.2,182.5c0.8,0,1.4-0.6,1.4-1.4c0-0.8-0.6-1.4-1.4-1.4c-0.8,0-1.4,0.6-1.4,1.4 S579.4,182.5,580.2,182.5z" class="st6"/><path d="M579.3,88.5c-0.6-0.5-1.5-0.4-2,0.2s-0.4,1.5,0.2,2c0.3,0.2,0.6,0.3,0.9,0.3c0.4,0,0.8-0.2,1.1-0.5 C580,89.9,579.9,89,579.3,88.5z" class="st6"/><path d="M580.4,191.5c0.8,0,1.4-0.7,1.4-1.4c0-0.8-0.7-1.4-1.5-1.3c-0.8,0-1.4,0.7-1.3,1.4 C579,190.9,579.6,191.5,580.4,191.5L580.4,191.5z" class="st6"/><path d="M570.6,82.8c-0.5,0.6-0.5,1.5,0.1,2c0.3,0.2,0.6,0.4,1,0.4s0.8-0.1,1-0.4c0.5-0.6,0.5-1.5-0.1-2 C572,82.2,571.1,82.2,570.6,82.8z" class="st6"/><path d="M585,216.6c-0.2-0.8-0.9-1.2-1.7-1.1c-0.8,0.2-1.2,0.9-1.1,1.7c0.1,0.7,0.7,1.1,1.4,1.1c0.1,0,0.2,0,0.3,0 C584.7,218.1,585.2,217.4,585,216.6z" class="st6"/><path d="M583.4,207.8c-0.1-0.8-0.8-1.3-1.6-1.2s-1.3,0.8-1.2,1.6c0.1,0.7,0.7,1.2,1.4,1.2c0.1,0,0.1,0,0.2,0 C583,209.3,583.5,208.6,583.4,207.8z" class="st6"/><path d="M581.1,200.5c0.8-0.1,1.3-0.8,1.3-1.5c-0.1-0.8-0.8-1.3-1.5-1.3c-0.8,0.1-1.3,0.8-1.3,1.5 C579.7,199.9,580.3,200.5,581.1,200.5C581,200.5,581,200.5,581.1,200.5z" class="st6"/><path d="M587.1,225.3c-0.2-0.8-1-1.2-1.7-1s-1.2,1-1,1.7c0.2,0.6,0.7,1,1.3,1c0.1,0,0.3,0,0.4-0.1 C586.9,226.8,587.3,226,587.1,225.3z" class="st6"/><path d="M549.2,55.8c-0.4-0.6-1.3-0.8-1.9-0.4s-0.8,1.3-0.4,1.9c0.3,0.4,0.7,0.6,1.1,0.6c0.3,0,0.6-0.1,0.8-0.2 C549.5,57.3,549.7,56.4,549.2,55.8L549.2,55.8z" class="st6"/><path d="M542.4,47.9c-0.7,0.4-0.9,1.3-0.5,1.9l0,0c0.3,0.4,0.7,0.7,1.2,0.7c0.2,0,0.5-0.1,0.7-0.2 c0.7-0.4,0.9-1.3,0.5-1.9C543.9,47.7,543.1,47.5,542.4,47.9z" class="st6"/><path d="M537.9,40.1c-0.7,0.4-0.9,1.2-0.5,1.9c0.2,0.5,0.7,0.7,1.2,0.7c0.2,0,0.5-0.1,0.7-0.2 c0.7-0.4,0.9-1.2,0.6-1.9C539.5,39.9,538.6,39.7,537.9,40.1z" class="st6"/><path d="M552.5,62.7c-0.6,0.5-0.7,1.4-0.2,2c0.3,0.4,0.7,0.5,1.1,0.5c0.3,0,0.6-0.1,0.9-0.3c0.6-0.5,0.7-1.4,0.2-2 C554,62.4,553.2,62.3,552.5,62.7z" class="st6"/><path d="M558.2,69.8c-0.6,0.5-0.6,1.4-0.1,2c0.3,0.3,0.7,0.5,1.1,0.5c0.3,0,0.6-0.1,0.9-0.3c0.6-0.5,0.7-1.4,0.1-2 C559.7,69.3,558.8,69.2,558.2,69.8z" class="st6"/><path d="M666.8,44.8c0.7-0.4,1-1.2,0.6-1.9s-1.2-0.9-1.9-0.6c-0.7,0.4-0.9,1.2-0.6,1.9c0.2,0.5,0.7,0.8,1.2,0.8 C666.3,45,666.6,44.9,666.8,44.8z" class="st6"/><path d="M628.6,68.5c-0.6,0.5-0.6,1.4-0.1,2c0.3,0.3,0.7,0.5,1,0.5s0.7-0.1,0.9-0.4c0.6-0.5,0.6-1.4,0.1-2 S629.1,67.9,628.6,68.5z" class="st6"/><path d="M795.7,235.5c-0.7-0.4-1.5-0.2-1.9,0.5s-0.2,1.5,0.5,1.9c0.2,0.1,0.5,0.2,0.7,0.2c0.5,0,0.9-0.2,1.2-0.7 C796.6,236.8,796.4,235.9,795.7,235.5z" class="st6"/><path d="M790.9,243.1c-0.6-0.4-1.5-0.3-1.9,0.4c-0.4,0.6-0.3,1.5,0.4,2c0.2,0.2,0.5,0.2,0.8,0.2 c0.5,0,0.9-0.2,1.2-0.6C791.7,244.4,791.5,243.5,790.9,243.1z" class="st6"/><path d="M800.3,227.7c-0.7-0.4-1.5-0.2-1.9,0.5s-0.2,1.5,0.5,1.9c0.2,0.1,0.5,0.2,0.7,0.2c0.5,0,1-0.2,1.2-0.7 C801.2,229,801,228.1,800.3,227.7z" class="st6"/><path d="M808.8,211.8c-0.7-0.3-1.5-0.1-1.9,0.6c-0.4,0.7-0.1,1.5,0.6,1.9c0.2,0.1,0.4,0.2,0.6,0.2 c0.5,0,1-0.3,1.3-0.8C809.7,213,809.5,212.2,808.8,211.8z" class="st6"/><path d="M812.7,203.8c-0.7-0.3-1.5,0-1.9,0.7c-0.3,0.7,0,1.5,0.7,1.9c0.2,0.1,0.4,0.1,0.6,0.1c0.5,0,1-0.3,1.3-0.8 C813.7,204.9,813.4,204.1,812.7,203.8z" class="st6"/><path d="M804.7,219.8c-0.7-0.4-1.5-0.1-1.9,0.6c-0.4,0.7-0.1,1.5,0.6,1.9c0.2,0.1,0.4,0.2,0.7,0.2 c0.5,0,1-0.3,1.2-0.7C805.6,221.1,805.3,220.2,804.7,219.8z" class="st6"/><path d="M783.7,250.7c-0.5,0.6-0.3,1.5,0.3,2c0.2,0.2,0.5,0.3,0.8,0.3c0.4,0,0.8-0.2,1.1-0.6 c0.5-0.6,0.3-1.5-0.3-2C785.1,249.9,784.2,250.1,783.7,250.7z" class="st6"/><path d="M752,281.6L752,281.6c-0.6,0.4-0.8,1.3-0.4,1.9c0.3,0.4,0.7,0.6,1.2,0.6c0.3,0,0.5-0.1,0.8-0.2 c0.6-0.4,0.8-1.3,0.4-1.9C753.5,281.3,752.6,281.1,752,281.6z" class="st6"/><path d="M750.2,64c-0.8-0.2-1.5,0.3-1.7,1.1c-0.2,0.8,0.3,1.5,1.1,1.7c0.1,0,0.2,0,0.3,0c0.7,0,1.2-0.5,1.4-1.1 C751.4,64.9,750.9,64.1,750.2,64z" class="st6"/><path d="M816.5,195.6c-0.7-0.3-1.5,0-1.8,0.7s0,1.5,0.7,1.9c0.2,0.1,0.4,0.1,0.6,0.1c0.5,0,1-0.3,1.3-0.8 C817.5,196.7,817.2,195.9,816.5,195.6z" class="st6"/><path d="M778.2,257.7c-0.5,0.6-0.4,1.5,0.2,2c0.3,0.2,0.6,0.3,0.9,0.3c0.4,0,0.8-0.2,1.1-0.5 c0.5-0.6,0.4-1.5-0.2-2S778.7,257.1,778.2,257.7z" class="st6"/><path d="M747.4,72.5c-0.7-0.4-1.5-0.1-1.9,0.6l0,0c-0.3,0.7-0.1,1.5,0.6,1.9c0.2,0.1,0.4,0.2,0.6,0.2 c0.5,0,1-0.3,1.2-0.8C748.4,73.7,748.1,72.9,747.4,72.5z" class="st6"/><path d="M772.2,264.3c-0.5,0.6-0.5,1.4,0.1,2c0.3,0.2,0.6,0.4,1,0.4s0.7-0.1,1-0.4c0.5-0.6,0.5-1.4,0-2 C773.6,263.7,772.8,263.7,772.2,264.3z" class="st6"/><path d="M759.1,276.3c-0.6,0.5-0.7,1.4-0.2,2c0.3,0.3,0.7,0.5,1.1,0.5c0.3,0,0.6-0.1,0.9-0.3 c0.6-0.5,0.7-1.4,0.2-2S759.8,275.8,759.1,276.3z" class="st6"/><path d="M765.9,270.6c-0.6,0.5-0.6,1.4-0.1,2c0.3,0.3,0.7,0.5,1,0.5s0.7-0.1,1-0.4c0.6-0.5,0.6-1.4,0.1-2 C767.3,270.1,766.5,270,765.9,270.6z" class="st6"/><path d="M749,47.2c-0.3-0.7-1.2-1-1.9-0.6c-0.7,0.3-1,1.2-0.6,1.9c0.2,0.5,0.7,0.8,1.2,0.8c0.2,0,0.4,0,0.6-0.1 C749,48.8,749.3,47.9,749,47.2z" class="st6"/><path d="M858.3,105.8c-0.7-0.4-1.5-0.2-1.9,0.5s-0.2,1.5,0.5,1.9c0.2,0.1,0.5,0.2,0.7,0.2c0.5,0,0.9-0.2,1.2-0.7 C859.2,107.1,859,106.2,858.3,105.8z" class="st6"/><path d="M853.8,113.6c-0.7-0.4-1.5-0.1-1.9,0.5c-0.4,0.7-0.1,1.5,0.5,1.9c0.2,0.1,0.5,0.2,0.7,0.2 c0.5,0,1-0.3,1.2-0.7C854.7,114.8,854.4,113.9,853.8,113.6z" class="st6"/><path d="M849.5,121.5c-0.7-0.4-1.5-0.1-1.9,0.6c-0.3,0.7-0.1,1.5,0.6,1.9c0.2,0.1,0.4,0.1,0.6,0.1 c0.5,0,1-0.3,1.2-0.8l0,0C850.5,122.7,850.2,121.9,849.5,121.5z" class="st6"/><path d="M820.2,187.4c-0.7-0.3-1.5,0-1.8,0.7s0,1.5,0.7,1.8c0.2,0.1,0.4,0.1,0.6,0.1c0.5,0,1-0.3,1.3-0.8 C821.2,188.5,820.9,187.7,820.2,187.4z" class="st6"/><path d="M874.5,84.3c-0.6-0.5-1.4-0.5-2,0.1c-0.5,0.6-0.5,1.5,0.1,2c0.3,0.2,0.6,0.4,1,0.4s0.8-0.1,1-0.4 C875.1,85.7,875,84.8,874.5,84.3z" class="st6"/><path d="M845.5,129.6c-0.7-0.3-1.5,0-1.9,0.7c-0.3,0.7,0,1.5,0.7,1.9c0.2,0.1,0.4,0.1,0.6,0.1c0.5,0,1-0.3,1.3-0.8 C846.5,130.8,846.2,129.9,845.5,129.6z" class="st6"/><path d="M866.6,91.3c-0.5,0.6-0.4,1.5,0.2,2c0.2,0.2,0.6,0.3,0.9,0.3c0.4,0,0.8-0.2,1.1-0.5c0.5-0.6,0.4-1.5-0.2-2 C868,90.6,867.1,90.7,866.6,91.3z" class="st6"/><path d="M863.2,98.3c-0.6-0.4-1.5-0.3-1.9,0.4c-0.4,0.6-0.3,1.5,0.4,1.9c0.2,0.2,0.5,0.2,0.8,0.2 c0.4,0,0.9-0.2,1.2-0.6C864,99.6,863.8,98.7,863.2,98.3z" class="st6"/><path d="M827.3,170.8c-0.7-0.3-1.5,0-1.8,0.7s0,1.5,0.7,1.8c0.2,0.1,0.4,0.1,0.5,0.1c0.5,0,1.1-0.3,1.3-0.9 C828.4,171.9,828,171.1,827.3,170.8z" class="st6"/><path d="M823.8,179.1c-0.7-0.3-1.5,0-1.8,0.7s0,1.5,0.7,1.8c0.2,0.1,0.4,0.1,0.5,0.1c0.5,0,1.1-0.3,1.3-0.9 C824.8,180.2,824.5,179.4,823.8,179.1z" class="st6"/><path d="M841.7,137.7c-0.7-0.3-1.5,0-1.9,0.7c-0.3,0.7,0,1.5,0.7,1.9c0.2,0.1,0.4,0.1,0.6,0.1c0.5,0,1-0.3,1.3-0.8 C842.7,138.9,842.4,138.1,841.7,137.7z" class="st6"/><path d="M830.9,162.5c-0.7-0.3-1.5,0-1.8,0.7s0,1.5,0.7,1.8c0.2,0.1,0.4,0.1,0.6,0.1c0.5,0,1.1-0.3,1.3-0.9 C831.9,163.6,831.6,162.8,830.9,162.5z" class="st6"/><path d="M838,146c-0.7-0.3-1.5,0-1.8,0.7s0,1.5,0.7,1.8c0.2,0.1,0.4,0.1,0.6,0.1c0.5,0,1.1-0.3,1.3-0.8 C839,147.1,838.7,146.3,838,146z" class="st6"/><path d="M834.4,154.2c-0.7-0.3-1.5,0-1.8,0.7s0,1.5,0.7,1.8c0.2,0.1,0.4,0.1,0.6,0.1c0.5,0,1.1-0.3,1.3-0.8 C835.4,155.4,835.1,154.5,834.4,154.2z" class="st6"/><path d="M683.9,35.9c-0.3-0.7-1.1-1.1-1.8-0.8s-1.1,1.1-0.9,1.8c0.2,0.6,0.7,0.9,1.3,0.9c0.2,0,0.3,0,0.5-0.1 C683.8,37.4,684.2,36.6,683.9,35.9z" class="st6"/><path d="M693.6,300.1c-0.8,0-1.4,0.7-1.3,1.5c0,0.8,0.7,1.3,1.4,1.3c0,0,0,0,0.1,0c0.8,0,1.4-0.7,1.3-1.5 C695,300.7,694.4,300.1,693.6,300.1z" class="st6"/><path d="M692.5,33.3c-0.2-0.7-1-1.2-1.7-1c-0.8,0.2-1.2,1-1,1.7c0.2,0.6,0.7,1,1.4,1c0.1,0,0.2,0,0.4,0 C692.3,34.8,692.7,34,692.5,33.3z" class="st6"/><path d="M696.3,108.4c-0.7,0.2-1.1,1-0.9,1.8c0.2,0.6,0.7,1,1.3,1c0.2,0,0.3,0,0.5-0.1c0.7-0.2,1.1-1,0.9-1.8 C697.8,108.5,697,108.2,696.3,108.4z" class="st6"/><path d="M708.8,29.3c-0.8,0-1.4,0.7-1.3,1.5c0,0.7,0.7,1.3,1.4,1.3c0,0,0,0,0.1,0c0.8,0,1.4-0.7,1.3-1.5 C710.2,29.9,709.6,29.3,708.8,29.3z" class="st6"/><path d="M704.7,105.3c-0.7,0.3-1.1,1.1-0.8,1.8c0.2,0.5,0.7,0.9,1.3,0.9c0.2,0,0.4,0,0.5-0.1 c0.7-0.3,1-1.1,0.8-1.8C706.2,105.3,705.4,105,704.7,105.3z" class="st6"/><path d="M702.5,299.4c-0.8,0.1-1.3,0.8-1.2,1.6c0.1,0.7,0.7,1.2,1.4,1.2h0.1c0.8-0.1,1.3-0.8,1.2-1.5 C703.9,299.9,703.2,299.3,702.5,299.4z" class="st6"/><path d="M687.8,111c-0.8,0.2-1.2,1-1,1.7c0.2,0.6,0.7,1,1.4,1c0.1,0,0.2,0,0.4-0.1c0.8-0.2,1.2-1,1-1.7 C689.3,111.2,688.5,110.8,687.8,111z" class="st6"/><path d="M701.3,31.5c-0.1-0.8-0.9-1.3-1.6-1.1c-0.8,0.1-1.3,0.9-1.1,1.6c0.1,0.7,0.7,1.2,1.4,1.2 c0.1,0,0.2,0,0.2,0C701,33,701.5,32.3,701.3,31.5z" class="st6"/><path d="M675.8,299.8c-0.8-0.1-1.4,0.5-1.5,1.3s0.5,1.4,1.3,1.5h0.1c0.7,0,1.3-0.6,1.4-1.3 C677.1,300.6,676.6,299.9,675.8,299.8z" class="st6"/><path d="M684.7,300.3c-0.8,0-1.4,0.6-1.4,1.4s0.6,1.4,1.4,1.4l0,0c0.8,0,1.4-0.6,1.4-1.4 C686.1,300.9,685.5,300.3,684.7,300.3z" class="st6"/><path d="M670.3,114.7c-0.8,0.1-1.3,0.8-1.2,1.6c0.1,0.7,0.7,1.2,1.4,1.2c0.1,0,0.1,0,0.2,0 c0.8-0.1,1.3-0.8,1.2-1.6C671.8,115.1,671.1,114.6,670.3,114.7z" class="st6"/><path d="M675.5,39.1c-0.3-0.7-1.1-1-1.8-0.7s-1,1.1-0.7,1.9c0.2,0.5,0.7,0.8,1.3,0.8c0.2,0,0.4,0,0.6-0.1 C675.5,40.6,675.8,39.8,675.5,39.1z" class="st6"/><path d="M667,298.8c-0.8-0.1-1.5,0.4-1.6,1.2c-0.1,0.8,0.4,1.5,1.2,1.6c0.1,0,0.1,0,0.2,0c0.7,0,1.3-0.5,1.4-1.2 C668.3,299.7,667.7,298.9,667,298.8z" class="st6"/><path d="M679.1,113.1c-0.8,0.2-1.2,0.9-1.1,1.7c0.1,0.7,0.7,1.1,1.4,1.1c0.1,0,0.2,0,0.3,0 c0.8-0.2,1.2-0.9,1.1-1.7C680.6,113.4,679.9,112.9,679.1,113.1z" class="st6"/><path d="M719.3,30.9c0.1-0.8-0.5-1.4-1.3-1.5s-1.4,0.5-1.5,1.3s0.5,1.4,1.3,1.5h0.1 C718.6,32.2,719.2,31.6,719.3,30.9z" class="st6"/><path d="M736.7,88.9c0.6-0.5,0.6-1.4,0.1-2s-1.4-0.6-2-0.1s-0.6,1.4-0.1,2c0.3,0.3,0.7,0.4,1,0.4 C736.1,89.2,736.4,89.1,736.7,88.9z" class="st6"/><path d="M736.5,290.2c-0.7,0.3-1,1.1-0.7,1.9c0.2,0.5,0.7,0.8,1.3,0.8c0.2,0,0.4,0,0.6-0.1c0.7-0.3,1-1.2,0.7-1.8 C738.1,290.2,737.2,289.9,736.5,290.2z" class="st6"/><path d="M711.2,298.1c-0.8,0.1-1.3,0.9-1.1,1.6c0.1,0.7,0.7,1.2,1.4,1.2c0.1,0,0.2,0,0.2,0 c0.8-0.1,1.3-0.9,1.1-1.6C712.7,298.5,712,298,711.2,298.1z" class="st6"/><path d="M728.3,293.5c-0.7,0.3-1.1,1.1-0.9,1.8c0.2,0.6,0.7,0.9,1.3,0.9c0.2,0,0.3,0,0.5-0.1 c0.7-0.3,1.1-1.1,0.9-1.8S729.1,293.3,728.3,293.5z" class="st6"/><path d="M743.4,39.6c-0.5-0.5-1.4-0.5-2,0c-0.5,0.6-0.5,1.4,0,2c0.3,0.3,0.6,0.4,1,0.4s0.7-0.1,1-0.4 C744,41,744,40.1,743.4,39.6z" class="st6"/><path d="M740.8,80.4c-0.5,0.6-0.4,1.5,0.2,2c0.3,0.2,0.6,0.3,0.9,0.3c0.4,0,0.8-0.2,1.1-0.5c0.5-0.6,0.4-1.5-0.2-2 C742.1,79.7,741.3,79.8,740.8,80.4z" class="st6"/><path d="M735.2,36.8c0.5,0,1-0.3,1.2-0.8c0.4-0.7,0.1-1.5-0.6-1.9c-0.7-0.4-1.5-0.1-1.9,0.6 c-0.3,0.7-0.1,1.5,0.6,1.9C734.7,36.7,734.9,36.8,735.2,36.8z" class="st6"/><path d="M744.4,286.2c-0.7,0.4-0.9,1.2-0.5,1.9c0.3,0.5,0.7,0.7,1.2,0.7c0.2,0,0.5-0.1,0.7-0.2 c0.7-0.4,0.9-1.2,0.5-1.9C746,286.1,745.1,285.8,744.4,286.2z" class="st6"/><path d="M712.8,101.6c-0.7,0.4-1,1.2-0.6,1.9c0.2,0.5,0.7,0.8,1.3,0.8c0.2,0,0.4,0,0.6-0.1c0.7-0.3,1-1.2,0.6-1.9 C714.3,101.5,713.4,101.3,712.8,101.6z" class="st6"/><path d="M719.9,296.2c-0.7,0.2-1.2,1-1,1.7c0.2,0.6,0.7,1,1.4,1c0.1,0,0.2,0,0.4,0c0.8-0.2,1.2-1,1-1.7 S720.6,296,719.9,296.2z" class="st6"/><path d="M728.8,94.9c0.3,0,0.6-0.1,0.8-0.3l0,0c0.6-0.5,0.8-1.3,0.3-2c-0.5-0.6-1.3-0.8-2-0.3 c-0.6,0.4-0.8,1.3-0.3,1.9C727.9,94.8,728.3,94.9,728.8,94.9z" class="st6"/><path d="M728.1,32.6c0.2-0.8-0.3-1.5-1-1.7c-0.8-0.2-1.5,0.3-1.7,1c-0.2,0.8,0.3,1.5,1,1.7c0.1,0,0.2,0,0.3,0 C727.4,33.6,728,33.2,728.1,32.6z" class="st6"/><path d="M720.6,97.3c-0.7,0.4-0.9,1.3-0.5,1.9c0.3,0.4,0.7,0.7,1.2,0.7c0.2,0,0.5-0.1,0.7-0.2 c0.7-0.4,0.9-1.3,0.5-1.9C722.1,97.1,721.2,96.9,720.6,97.3z" class="st6"/><path d="M601.1,102.9c-0.8,0-1.4,0.6-1.4,1.4s0.6,1.4,1.4,1.4c0.8,0,1.4-0.6,1.4-1.4S601.9,102.9,601.1,102.9z" class="st6"/></g></g></g></g><g><path d="M121.2,162.7c-18.2-2.9-38.6-6.5-56.1-9.6v-27.7c21.9,4.3,34,7.1,55.9,11.4c0.9,0.2,1.7,1.1,1.7,2.1v22.4 C122.9,162.2,122.2,162.9,121.2,162.7z" class="st87"/><path d="M131.8,155.5c-26.8-4.3-79.5-13.8-79.5-13.8c-0.9-0.2-1.7-1.3-1.7-2.4l0.2-24c0-1,0.7-1.7,1.7-1.5 c26.4,5.1,52.7,10.5,79.1,15.7c0.9,0.2,1.7,1.1,1.7,2.1V154C133.5,155,132.8,155.7,131.8,155.5z" class="st88"/><g><path d="M69.7,131c0,3.7-2.5,6.2-5.6,5.5c-3.1-0.6-5.7-4.2-5.7-7.9s2.5-6,5.6-5.4C67.1,123.9,69.7,127.3,69.7,131z" class="st58"/></g><g><path d="M122.3,135.9c-14.8-2.6-29.5-5.3-44.2-8.2c-0.3-0.1-0.5-0.3-0.5-0.6c0-0.3,0.2-0.5,0.5-0.4 c14.7,2.9,29.4,5.7,44.1,8.3c0.3,0,0.5,0.3,0.5,0.6C122.7,135.7,122.5,135.9,122.3,135.9z" class="st89"/><path d="M100.5,137.3c-9-1.6-13.4-2.4-22.4-4.1c-0.3-0.1-0.5-0.3-0.5-0.6s0.2-0.5,0.5-0.5c9,1.8,13.4,2.6,22.4,4.2 c0.3,0,0.5,0.3,0.5,0.6S100.8,137.3,100.5,137.3z" class="st89"/><path d="M100.6,143.3c-9-1.5-13.5-2.2-22.4-3.9c-0.3,0-0.5-0.3-0.5-0.6s0.2-0.5,0.5-0.5c9,1.7,13.4,2.4,22.4,3.9 c0.3,0,0.5,0.3,0.5,0.6S100.9,143.3,100.6,143.3z" class="st89"/><path d="M122.5,141c-7.1-1.2-10.6-1.8-17.7-3c-0.3,0-0.5-0.3-0.5-0.6s0.2-0.5,0.5-0.4c7.1,1.2,10.6,1.8,17.7,3 c0.3,0,0.5,0.3,0.5,0.6C122.9,140.8,122.7,141,122.5,141z" class="st89"/></g></g><g><g><polygon points="189.5 251.5 211.4 247.9 211.4 245.6 189.5 249.2" class="st38"/></g><g><polygon points="204.2 307.2 229.6 303 229.6 300.7 204.2 304.9" class="st38"/><polygon points="139.9 317.8 196.3 308.5 196.3 306.2 139.9 315.5" class="st40"/></g><g><g><g><g><path d="M178.8,291.6c2.4-0.3,3.5-0.5,5.9-0.9c0-1,0-1.5,0-2.4c-2.4,0.3-3.5,0.5-5.9,0.8 C178.8,290.2,178.8,290.6,178.8,291.6z" class="st39"/><path d="M164.4,293.9c3.7-0.6,5.6-0.9,9.3-1.5c0-1,0-1.5,0-2.5c-3.7,0.6-5.6,0.8-9.3,1.4 C164.4,292.3,164.4,292.9,164.4,293.9z" class="st38"/></g><path d="M172.1,308.2c5-0.9,7.6-1.3,12.6-2.1c0-1,0-1.4,0-2.4c-5,0.8-7.5,1.2-12.6,2.1 C172.1,306.7,172.1,307.2,172.1,308.2z" class="st40"/><g><path d="M174.9,315.3c3.9-0.7,5.9-1.1,9.8-1.8c0-0.9,0-1.4,0-2.4c-3.9,0.7-5.9,1-9.8,1.7 C174.9,313.8,174.9,314.3,174.9,315.3z" class="st39"/><path d="M166.7,316.8c2.2-0.4,3.3-0.6,5.5-1c0-1,0-1.4,0-2.4c-2.2,0.4-3.3,0.6-5.5,1 C166.7,315.4,166.7,315.8,166.7,316.8z" class="st41"/></g><g><path d="M180.9,328.9c8.9-1.8,13.4-2.6,22.3-4.3c0-0.9,0-1.3,0-2.2c-8.9,1.6-13.3,2.4-22.3,4.2 C180.9,327.5,180.9,328,180.9,328.9z" class="st40"/><path d="M151.1,335.2c8.1-1.8,12.2-2.7,20.2-4.4c0-0.9,0-1.4,0-2.3c-8.1,1.7-12.1,2.5-20.2,4.3 C151.1,333.8,151.1,334.3,151.1,335.2z" class="st40"/></g><path d="M169.4,338.5c6.2-1.3,9.2-2,15.4-3.3c0-0.9,0-1.3,0-2.2c-6.1,1.2-9.2,1.9-15.4,3.2 C169.4,337.1,169.4,337.6,169.4,338.5z" class="st40"/><path d="M179.5,343.4c5.2-1.1,7.9-1.7,13.1-2.8c0-0.9,0-1.3,0-2.2c-5.2,1.1-7.8,1.6-13.1,2.8 C179.5,342.1,179.5,342.5,179.5,343.4z" class="st41"/><path d="M189.3,348c5.6-1.2,8.4-1.8,13.9-3c0-0.8,0-1.3,0-2.1c-5.6,1.2-8.3,1.8-13.9,3 C189.3,346.8,189.3,347.2,189.3,348z" class="st40"/><g><path d="M176.5,363.1c3.1-0.7,4.7-1.1,7.7-1.8c0-0.8,0-1.2,0-2c-3.1,0.7-4.6,1.1-7.7,1.8 C176.5,361.9,176.5,362.3,176.5,363.1z" class="st39"/><path d="M161.8,366.7c4.3-1,6.5-1.6,10.7-2.6c0-0.8,0-1.2,0-2.1c-4.3,1-6.4,1.5-10.7,2.6 C161.8,365.4,161.8,365.8,161.8,366.7z" class="st40"/></g></g><g><path d="M137.3,243.5c0-7,3.7-9.8,8.2-10.3l139.7,0.6c4.5-0.4,8.2,2,8.2,8.4c0,2.2,0,6.3,0,6.3 c0.1,29.3-6.8,56.4-6.7,85.7c0-1.4-3.5,8.3-8,9.3c0,0-123.5,33.7-126.9,34.7s-7.6-0.3-10.1-1.5c-2.2-1.2-4.4-1.5-4.4-4.9 c0-36.8,0-73.6-0.1-110.4l0,0C137.3,259.1,137.3,245.7,137.3,243.5z" class="st87"/><path d="M137.3,249.5c0-7,3.7-9.8,8.2-10.3l139.7-1.4c4.5-0.4,8.2,3,8.2,9.4c0,2.2,0,6.3,0,6.3 c0.1,29.3-6.8,54.4-6.7,83.7c0,3.9-3.6,10.3-8,11.3c0,0-123.5,33.7-126.9,34.7s-7.6-0.3-10.1-1.5c-2.2-1.2-4.4-2.5-4.4-5.9 c0-36.8,0-72.6-0.1-109.4l0,0C137.3,264.1,137.3,251.7,137.3,249.5z" class="st43"/><path d="M144.9,260.8c0,38.7,0,76.3,0.1,115c0,5.3,3.7,8.4,8.3,7.2l133.1-36.5c4.5-1,8.1-5.4,8-9.3 c-0.2-29.3-0.3-52.5-0.4-81.8" class="st6"/><path d="M294,255.3c0-2.2,0-4.1,0-6.2c0-6.3-3.7-10.5-8.2-10.2l-132.6,2c-4.5,0.5-8.2,3.3-8.2,10.3 c0,2.2,0,7.4,0,9.7" class="st44"/><path d="M144.9,260.8c0,38.7,0,76.3,0.1,115c0,5.3,3.7,8.4,8.3,7.2l133.1-36.5c4.5-1,8.1-5.4,8-9.3 c-0.2-29.3-0.3-52.5-0.4-81.8" class="st6"/><path d="M294,255.3c0-2.2,0-4.1,0-6.2c0-6.3-3.7-10.5-8.2-10.2l-132.6,2c-4.5,0.5-8.2,3.3-8.2,10.3 c0,2.2,0,7.4,0,9.7" class="st44"/><g class="st45"><path d="M222.7,324.2l59.1-11c0.6-0.1,1.1-0.7,1.1-1.5c-0.1-14.9-0.2-28.1-0.3-43c0-0.8-0.5-1.5-1.1-1.4 c-19.7,1-39.4,2.1-59.1,3.4c-0.6,0.1-1.1,0.8-1.1,1.7c0.1,16.9,0.2,33.7,0.3,50.6C221.6,323.8,222.1,324.3,222.7,324.2z" class="st90"/><line x1="156.1" x2="210.5" y1="339.6" y2="328.4" class="st90"/><line x1="210.4" x2="156" y1="287" y2="292.1" class="st90"/><line x1="210.4" x2="156" y1="300.7" y2="306.7" class="st90"/><line x1="210.4" x2="156" y1="272.2" y2="276.6" class="st90"/><line x1="210.5" x2="156" y1="315.5" y2="323.5" class="st90"/><path d="M156.1,368c18.2-4.4,36.4-8.7,54.6-12.8" class="st90"/><path d="M210.6,340.8c-18.2,3.8-36.4,7.9-54.5,12.2" class="st90"/><line x1="222.3" x2="282.8" y1="351.8" y2="336.9" class="st90"/><line x1="282.8" x2="222.2" y1="324.7" y2="338.4" class="st90"/></g></g><path d="M225.3,289.6c27.5-1.3,52.9,20.7,69,40.4c-0.1-27.5-0.3-50-0.4-77.5c0.2-8.8-3.1-13.9-8.8-13.6l-132,1.9 c-3.2,0.3,0,0,0,0C184.8,236.1,190.9,291.3,225.3,289.6z" class="st47"/><path d="M185.4,252.3l69.6-1.9c0.9-0.1,1.7-0.5,1.6-1.8c0-0.3,0-0.5,0-0.8c0-1.3-0.8-2.4-1.8-2.2 c-23.2,0.2-46.4,0.3-69.6,0.8c-0.9,0.1-1.7,1.4-1.6,2.8c0,0.3,0,0.5,0,0.8C183.6,251.3,184.4,252.4,185.4,252.3z" class="st48"/><path d="M196.8,250.1c14.7-0.3,29.5-0.7,44.2-0.9c0.4-0.1,0.7-0.3,0.7-0.9c0-0.1,0-0.2,0-0.4c0-0.6-0.4-1-0.8-1 c-14.7,0.1-29.5,0.3-44.2,0.5c-0.4,0.1-0.7,0.7-0.7,1.3c0,0.1,0,0.2,0,0.4C196,249.8,196.3,250.2,196.8,250.1z" class="st52"/></g></g></g><g><g><path fill="#033a89" d="M188.9,355c-17.9,3.7-44,11.1-44,11.1l-7.7-3.8c0-13,0-26.1,0-39.1c25-4.5,26.7-2.5,51.7-7.3 c0.9-0.2,1.6,0.3,1.6,1.1c0,12.7,0,23.6,0,36.3C190.5,354.1,189.8,354.8,188.9,355z" enable-background="new" opacity=".25"/><path fill="#6ac3db" d="M193.8,346.2l-71.3,18.2c0,0-4.6-2.1-4.9-2.2c-0.3-0.2-0.6-0.5-0.6-1c0-13.9,0-27.9,0-41.8 c0-0.8,0.7-1.6,1.5-1.8l72.4-9.9c0.9-0.2,4.3,2.1,4.3,2.9c0,12.8,0,21.1,0,34C195.4,345.3,194.7,346,193.8,346.2z"/><path d="M194,349.2l-70.6,15.2c-0.9,0.2-1.6-0.3-1.6-1.1c0-13.9,0-27.9,0-41.8c0-0.8,0.7-1.6,1.5-1.8l70.6-9.9 c0.9-0.2,1.6,0.3,1.6,1.1c0,12.8,0,23.8,0,36.7C195.5,348.3,194.8,349,194,349.2z" class="st54"/><path d="M131.6,325c-2.1,0.4-3.1,0.6-5.2,1c0-1,0-1.5-0.1-2.4c2.1-0.4,3.1-0.6,5.2-1 C131.6,323.5,131.6,324,131.6,325z" class="st6"/><path d="M131.8,331.7c-2.1,0.4-3.1,0.6-5.2,1c0-1,0-1.5-0.1-2.4c2.1-0.4,3.1-0.6,5.2-1 C131.7,330.2,131.7,330.7,131.8,331.7z" class="st6"/><path d="M131.9,338.4c-2.1,0.4-3.1,0.6-5.2,1.1c0-1,0-1.5-0.1-2.4c2.1-0.4,3.1-0.6,5.2-1.1 C131.9,337,131.9,337.5,131.9,338.4z" class="st6"/><path d="M132.1,345.2c-2.1,0.4-3.1,0.7-5.2,1.1c0-1,0-1.5-0.1-2.4c2.1-0.4,3.1-0.7,5.2-1.1 C132,343.7,132,344.2,132.1,345.2z" class="st6"/><path d="M132.2,351.9c-2.1,0.4-3.1,0.7-5.2,1.1c0-1,0-1.5-0.1-2.4c2.1-0.4,3.1-0.7,5.2-1.1 C132.2,350.4,132.2,350.9,132.2,351.9z" class="st6"/><path d="M132.4,358.7c-2.1,0.4-3.1,0.7-5.2,1.1c0-1,0-1.5-0.1-2.5c2.1-0.5,3.1-0.7,5.2-1.1 C132.3,357.2,132.3,357.7,132.4,358.7z" class="st6"/><polygon points="188.8 325.2 172.8 328.2 172.8 325.9 188.7 322.9" class="st11"/><polygon points="188.9 331.5 173 334.6 172.9 332.3 188.9 329.3" class="st11"/><polygon points="180.4 339.3 173.1 341.1 173.1 338.8 180.3 337.1" class="st11"/><path fill="#2a95c4" d="M151.1,321.4L151.1,321.4c-4.1,0.7-7.8,3.1-10.4,6.4c-2.6,3.3-4.2,7.5-4.1,11.8c0.2,8.5,7,13.9,15.2,12 c4.1-0.9,7.8-3.4,10.4-6.7c2.6-3.3,4.2-7.2,4.1-11.3l0,0C166.1,325.6,159.3,320,151.1,321.4z M159.1,342.6 c-1.9,2.3-4.5,4.1-7.5,4.7c-5.9,1.3-10.8-2.5-10.9-8.6c-0.1-3,1.1-6,3-8.4s4.5-4.1,7.5-4.6l0,0c5.9-1.1,10.8,2.9,10.9,8.7l0,0 C162.1,337.4,161,340.2,159.1,342.6z" enable-background="new" opacity=".28"/><g><path fill="#273977" d="M153.9,325.7L153.9,325.7c0-1.7-0.1-2.6-0.1-4.3l0,0c-4.1,0.7-7.8,3.1-10.4,6.5c1.2,1,1.8,1.5,3.1,2.5 C148.3,328,151,326.3,153.9,325.7z"/><path fill="#625d70" d="M153.8,321.4c0,1.7,0.1,2.6,0.1,4.3c5.9-1.1,10.8,2.9,10.9,8.8l0,0c0.1,2.9-1.1,5.8-3,8.1 c1.2,1,1.8,1.4,3.1,2.4c2.6-3.3,4.2-7.2,4.1-11.3l0,0C168.9,325.6,162.1,320,153.8,321.4z"/><path d="M143.5,338.7c-0.1-3,1.1-6,3-8.4c-1.2-1-1.8-1.5-3.1-2.5c-2.6,3.3-4.2,7.5-4.1,11.8l0,0 C141,339.3,141.8,339.1,143.5,338.7L143.5,338.7z" class="st6"/><path fill="#ffb91f" d="M161.8,342.6c-1.9,2.3-4.5,4.1-7.5,4.7c-5.9,1.3-10.8-2.6-10.9-8.6c-1.7,0.4-2.5,0.5-4.2,0.9 c0.2,8.5,7,13.9,15.2,12c4.1-0.9,7.8-3.4,10.4-6.7C163.7,344.1,163.1,343.6,161.8,342.6z"/></g></g></g><g><path d="M294,263.4c-3.7-13.7,26.3-28.8,14.7-31.7c-0.8-0.3-1.7-0.7-2.7-0.8c-8.1-1.9-20.3-0.1-26.9,2.9 c-10.1,4.6-17.6,11.8-22.4,22.1c-4.7,10-6.2,22.3-3.6,33.2c-3.8,1.7-10,4.5-13.5,6.1c-0.1-0.1-0.2-0.2-0.3-0.3 c-0.5-0.6-1.4-1.1-2.4-0.7c-1.4,0.6-16.3,7.4-26.1,11.8l-5,2.2c-1.8,0.8-2.3,3.9-1.2,6.9c1,2.5,2.8,4.2,4.5,4.1 c0.2,0,0.5,0,0.7-0.1h0.1l30.5-13.8c0.9-0.4,1.4-1.5,1.5-3l13.5-6.1c2.8,6.7,6.8,11.4,12.8,15.2c2.1,1.2,4.2,2.2,6.5,3.1 c8.6,3.4,17.8,2.5,19.7,2.2L294,263.4z M294.5,287.9c0.7,10-0.6,14.4-0.6,14.4c-1.6,3.3-5.6,5.2-11.2,2.9 c-14-5.9-20.9-26.2-13.1-43.4c1.7-3.8,3.5-5.4,5.2-7.1l11.1-1.2c2.2,0.2,4.2,0.7,5.5,1.9c1.5,1.3,2.2,4.3,2.6,8 C294,263.4,294,281.2,294.5,287.9z" class="st29"/><g><g id="Layer_1_2_"><path fill="#c13e10" d="M288.6,227.8c-10.1,4.6-17.6,11.8-22.4,22.1s-6.3,23.1-3.3,34.1c2.7,10.2,7.2,16.5,14.9,21.3 c2.1,1.2,4.2,2.2,6.5,3.1c8.6,3.4,12.6,2.2,12.6,2.2c6.4,0.8,8.9-0.5,13.8-2c21.1-6.2,32.1-35.9,26.1-58 c-2.8-10.4-6.9-19.4-15.4-23c0,0-2.1-2.3-5.7-2.9C307.4,223,295.2,224.8,288.6,227.8z M315.3,233.9c15.5,7.6,28.3,27.9,15,50.8 s-31.3,20.8-41.8,15.7c-10.5-5-20.8-26.2-12.4-44.6C284.5,237.3,302.8,229,315.3,233.9C327.7,238.9,315.3,233.9,315.3,233.9z"/><path fill="#1d267c" d="M262,279.5l5,2.4c0,0-3.3,4-3.7,3.4S262,280.1,262,279.5z" enable-background="new" opacity=".31"/><path d="M295.6,228.1c-20.2,9.1-31.9,34-26,56.1c3.3,12.1,11.3,20.1,20.9,24c8,3.2,17,3.7,26.1-0.4 c20.2-9.1,32.4-34.1,26.4-56.2S315.9,219,295.6,228.1z M321.7,234.7c15.5,7.6,21.2,28.8,12.8,47.3 c-8.5,18.5-27.9,27.2-43.4,19.6s-21.2-28.8-12.8-47.3S306.2,227,321.7,234.7L321.7,234.7z" class="st99"/><path fill="#db5019" d="M321.7,234.7c-15.5-7.6-34.9,1.1-43.4,19.6s-2.7,39.6,12.8,47.3c15.5,7.6,35.2-1,43.7-19.4 C343.2,263.6,337.2,242.3,321.7,234.7z M320.6,237c14.4,7.1,19.4,26.7,11.6,43.9c-7.9,17.2-25.2,24.6-40.1,18.4 c-14-5.9-20.9-26.2-13.1-43.4C287,238.7,306.2,229.9,320.6,237z"/><path fill="#ffb91f" d="M322.7,232.8c-16.6-8.2-37.4,0.9-46.3,20.5s-2.7,42.2,14,50.4c16.6,8.3,37.4-1,46.3-20.5 C345.6,263.6,339.3,241,322.7,232.8z M321.5,235.2c15.5,7.7,21.3,28.7,13,46.9s-27.6,26.8-43.1,19.1 c-15.5-7.7-21.3-28.7-13-46.9S306.1,227.6,321.5,235.2z" enable-background="new" opacity=".78"/><g opacity=".65"><path fill="#69c8ed" d="M320.8,236.5c-14.4-7.1-33.7,1.8-41.6,18.9s-1.4,36.3,13.1,43.4c15.3,7.4,32.8-1.7,40.3-18.4 C340.4,263.2,335.1,243.6,320.8,236.5z"/></g><g class="st30"><path fill="#dcf8f9" d="M310.4,300.8c-6.1,1.6-12.3,0.9-18.2-1.6c-14.8-6.4-20.9-26.2-13.1-43.4c3.1-6.9,9.4-15,20.5-19.6 C299.6,236.3,281.4,279.6,310.4,300.8z"/></g><g><g><path fill="#1e69bc" d="M268.6,284.5c-0.6-2-1.9-3.2-2.9-2.8c0,0-0.3,0.1-0.8,0.4l-18.3,8.2c-0.6,0.3-0.4,0.8-0.2,1.5l1.4,4.7 c0.2,0.6,0.8,0.9,1.4,0.7h0.1l18.8-8.5C268.9,288.4,269.2,286.4,268.6,284.5z"/><g class="st106"><path d="M246.5,290.3c0,0,17.9-8.1,19.1-8.6s2,1.1,2,1.1l-20.1,9.1c-0.5,0.2-1.6,0.3-1.8-0.2 C245.7,291.1,246,290.6,246.5,290.3z" class="st107"/></g><path d="M268.6,284.5c-0.6-2-1.9-3.2-2.9-2.8c0,0-0.3,0.1-0.8,0.4l-18.3,8.2c-0.6,0.3-0.4,0.8-0.2,1.5l0.5,1.7 v0.1c0.2,0.6,0.8,0.9,1.4,0.6l20.4-9.2C268.7,284.8,268.6,284.7,268.6,284.5z" class="st108"/><path d="M265.7,281.7c0,0-0.5,0.2-1.4,0.6l-17.8,8c-0.2,0.1-0.4,0.3-0.5,0.5c0.2,0.1,0.5,0,0.7-0.1l20-9 C266.3,281.6,266,281.6,265.7,281.7z" class="st108"/><path d="M268.8,285.7l-20.4,9.2c-0.5,0.2-0.8,0.8-0.8,1.3c0.3,0.4,0.8,0.6,1.3,0.4l19.8-8.9 C268.9,287.1,268.9,286.4,268.8,285.7z" class="st108"/><ellipse cx="247.9" cy="293.8" fill="#1d267c" rx="2.3" ry="3.7" transform="matrix(0.944 -0.3298 0.3298 0.944 -83.0247 98.1961)"/></g><g><path fill="#0289b2" d="M250.9,292.5c-1-3.1-3-5-4.5-4.3c0,0-0.5,0.2-1.3,0.6l-34.4,15.1c-1,0.5-0.7,1.3-0.3,2.3l2.2,7.4 c0.2,0.9,1.2,1.5,2.1,1.2h0.1l35-15.5C251.4,298.6,251.9,295.6,250.9,292.5z"/><g class="st106"><path d="M210.7,303.9c0,0,33.8-14.9,35.6-15.7c1.9-0.8,3.1,1.7,3.1,1.7l-37.1,16.4c-0.8,0.3-2.5,0.4-2.9-0.3 C209.5,305.1,210,304.3,210.7,303.9z" class="st107"/></g><path d="M250.9,292.5c-1-3.1-3-5-4.5-4.3c0,0-0.5,0.2-1.3,0.6l-34.4,15.1c-1,0.5-0.7,1.3-0.3,2.3l0.8,2.6v0.1 c0.3,0.9,1.3,1.4,2.2,1l37.7-16.7C251.1,293.1,251,292.8,250.9,292.5z" class="st6"/><path d="M246.4,288.2c-0.1,0-0.8,0.4-2.1,0.9l-33.5,14.8c-0.3,0.2-0.6,0.4-0.9,0.8c0.3,0.1,0.7,0.1,1-0.1 l36.9-16.3C247.4,288.1,246.8,288,246.4,288.2z" class="st108"/><path d="M251.3,294.4L213.8,311c-0.8,0.4-1.3,1.2-1.2,2c0.4,0.7,1.3,0.9,2,0.6l36.7-16.2 C251.4,296.5,251.5,295.5,251.3,294.4z" class="st108"/><ellipse cx="212.8" cy="309.3" fill="#7acfe2" rx="3.6" ry="5.8" transform="matrix(0.944 -0.3298 0.3298 0.944 -90.1005 87.4874)"/></g></g></g></g></g><g><path d="M138.5,251.4c0-0.4,0-0.6,0-1.1h-0.1c0-7.9,0-14.7,0-22.6c0-1.6-0.5-2.7-1.4-3.6c-0.4-0.6-1.7-4.7-8.1-5.1 c-1,0,2.9,0,2,0c0-3.8,0-7.7,0-13.1c-0.1-16.1-12.5-29.6-27.7-31c-4.7-0.4-8.2-0.2-8.8-0.1c-12,1.3-28,13-28.6,28.1 c0,8.7,0.5,66.4,0.5,66.4s72.1,22.6,72.2,5c0-4.7,0-17.3,0-21.9h0.1c0-0.4,0-0.6,0-1.1h-0.1c0-0.1,0-0.1,0-0.2 C138.4,251.4,138.4,251.4,138.5,251.4z M95.6,181.3c9.6,2,21.9,14.1,21.9,24.1c0,7.7,0,13.8,0,13.8l-40.7-0.4c0,0,0-9.1,0.1-15.3 C76.8,192.3,85.1,181.6,95.6,181.3z" class="st112"/><path d="M148.2,265.8c0-1.6-0.5-2.7-1.4-3.6c-0.4-0.6-1.7-4.7-8.1-5.1c-1,0-1.9,0-2.9,0c0-3.8-61.4-8-61.4,1 c-3.9,0.1,55.7,37,51.8,37.1v16.4c0,0-1.5,4.4,7.4-1.5s14.2-15.8,14.6-20.4s0-4.7,0-9.4C148.3,280.3,148.2,273.6,148.2,265.8z" class="st29"/><g><g><path fill="#00bbda" d="M123.4,285.9c-12.9-0.1-19.4-0.1-32.4-0.1c0-14.6,0-29.3,0-43.9c13,0.3,19.4,0.5,32.4,0.8 C123.4,257.1,123.4,271.5,123.4,285.9z" enable-background="new" opacity=".52"/><path d="M80.5,303c-10.2-7.3-15.3-16.9-14.5-29.3c0.5-14.1,1.7-29.4,1.9-43.2c0.1-4.5,0.6-3.7,4.5-3.7 c24.4-0.4,48.7,0.7,73.1,0.7c-0.3,0-1.3-4.8-8.1-5.1c-25.3,0-50.6-1.1-76-0.9c-3.9,0-7,1.8-7,6.4c0,15.1,0,30.1,0,45.2 c-1.6,25.2,22.3,37.9,44.3,38.4c0.5,0,3-0.1,3.5-0.2C97.2,311.2,87.8,308.3,80.5,303z" class="st32"/><g><g><path d="M79.2,205.5c0.1-9.7,5.3-17.8,11.6-22.9c4.2-3.4,9.8-5.3,15.8-5.4c-0.7-0.1-2.9-0.3-3.6-0.3 c-15.8-0.8-27.1,13.4-27.7,28.5c0,8.7-0.1,16-0.1,16l3.8,1.9C79.1,223.3,79.1,214.1,79.2,205.5z" class="st114"/><path d="M128.3,208.8C128,197,119,185,106.7,185.5c-0.5,0-1.1,0-1.6,0c10.2,1.4,18.1,12.7,18.1,23.2 c0,8.1,0,5.8,0,14c2,0.8,3.1,1.3,5.1,2.1C128.3,216.6,128.3,216.9,128.3,208.8z" class="st114"/><path d="M113,266.4c4.1-2.4,5.9-7.5,5.9-12.4c0-6.7-5.6-5.2-12-4.8c-0.5,0-1.1,0.1-1.6,0.2 c5.4,0.7,8.2,4.9,8.3,8.6c0.1,3.7-2,6.7-5.3,8c1.7,8.4,2.5,12.5,4.2,20.6c-5.9,0.8-8.8,1.3-14.7,2.1v0.1 c7.3-1,11.1-1.6,18.5-2.6C114.5,278.3,114.7,274.8,113,266.4z" class="st115"/><path d="M136.7,227.7c-3.5,0-5.2,0.1-8.7,0.1c0-8.2,0-10.8,0-18.8c0-11.1-9-22.8-20.2-23.3 c-11.2-0.4-20.3,8.3-20.3,20.1c0,8.6-0.1,11.9-0.1,20.7c-3.5,0.1-5.2,0.1-8.6,0.2c0-9,0.1-12.4,0.1-21.1 c0.7-15.5,13.2-29.8,29-28.4c15.2,1.4,28.8,15.9,28.8,32C136.7,217.2,136.7,219.7,136.7,227.7z" class="st88"/><path d="M141.9,224.7c-23.1,0-46.2-1.6-69.3-1.3c-3.9,0.1-7,1.8-7,6.4c0,14.1,0,29.3,0,43.4 c-2.4,23,20.1,39.5,41.2,38.1c22-1.4,42.2-19.7,42.3-42.5c0-13.3,0-25.6,0-38.9C149,226.2,145.8,224.7,141.9,224.7z M115.6,285.9c-7.4,1.1-11.1,1.6-18.4,2.6c1.7-8.8,2.6-13.3,4.4-22.2c-3.8-1.6-6.5-5.6-6.4-10.7c0-7,5.2-13.1,11.6-13.5 s11.6,4.7,11.6,11.5c0,4.9-2.8,9.4-6.9,11.8C113,273.8,113.9,277.9,115.6,285.9z" class="st34"/><linearGradient id="SVGID_20_" x1="2526.629" x2="2602.229" y1="12.754" y2="12.754" gradientTransform="matrix(1 0 0 1 -2458.5293 252)" gradientUnits="userSpaceOnUse"><stop offset=".095" stop-color="#fff"/><stop offset=".866" stop-color="#fff" stop-opacity=".1"/></linearGradient><path fill="url(#SVGID_20_)" d="M137.2,227.8c-20.9,0.3-41.8-1.4-62.6-0.9c-3.5,0.1-6.4,1.7-6.4,5.8c0,12.7,0,26.4-0.1,39.1 c0,11.7,4,24.8,10.6,30.9c21.4-24,42.1-47.5,65-70.1C143.7,229.1,140.8,227.7,137.2,227.8z M113.4,283.5 c-6.7,0.9-10,1.4-16.6,2.3c1.6-8,2.4-12,3.9-20.1c-3.5-1.5-5.8-5.1-5.8-9.7c0-6.4,4.7-11.9,10.5-12.2 c5.8-0.4,10.5,4.3,10.5,10.4c0,4.5-0.9,9.8-4.6,11.9C112.7,273.6,111.8,276.1,113.4,283.5z" enable-background="new" opacity=".09"/></g><path fill="#45bfdb" d="M133.2,202.2c0,0-0.6-5.6-3.2-10.1c-0.5-1-1.3-1.9-2-2.8c-0.8-0.9-1.6-1.9-2.7-2.7 c-0.9-0.9-2.1-1.6-3.1-2.4c-1.2-0.7-2.3-1.4-3.5-1.9c-1.2-0.6-2.5-0.9-3.6-1.4c-1.2-0.3-2.4-0.6-3.6-0.7 c-0.6-0.1-1.1-0.1-1.7-0.2c-0.5,0-1.1,0-1.6,0c-1-0.1-1.9,0-2.7,0.1c-0.4,0-0.8,0.1-1.1,0.1c-0.3,0.1-0.7,0.1-0.9,0.2 c-1.1,0.2-1.8,0.4-1.8,0.4s0.7,0,1.8,0c0.3,0,0.6,0,0.9,0s0.7,0,1.1,0.1c0.8,0,1.7,0.1,2.6,0.2c0.5,0.1,1,0.1,1.5,0.2 c0.5,0.1,1,0.2,1.6,0.3c1.1,0.2,2.2,0.6,3.3,0.9c1.1,0.4,2.3,0.8,3.3,1.4c1.1,0.5,2.2,1.2,3.3,1.8c1,0.7,2.1,1.4,3,2.2 c1,0.7,1.8,1.6,2.6,2.4c0.4,0.4,0.7,0.9,1.1,1.3c0.4,0.4,0.7,0.8,1,1.3C131,195.9,133.2,202.2,133.2,202.2z"/><g><g opacity=".24"><path d="M117.6,237.4c0.5,0,0.7,0,1.1,0c0.1-5,0.1-8,0.2-13c-0.5,0-0.7,0-1.1,0 C117.7,229.4,117.7,232.4,117.6,237.4z" class="st119"/><path d="M98.3,237.1c0.5,0,0.7,0,1.1,0c0.1-5.2,0.1-8.3,0.2-13.4c-0.5,0-0.7,0-1.1,0 C98.4,228.8,98.4,231.9,98.3,237.1z" class="st119"/></g><g class="st120"><path d="M133.5,256c6.3-0.4,9.4-0.6,15.6-1.1c0-0.4,0-0.6,0-1.1c-6.2,0.4-9.3,0.6-15.6,1 C133.6,255.3,133.6,255.5,133.5,256z" class="st121"/><path d="M133.6,254.7c6.3-0.4,9.4-0.6,15.6-1c0-0.4,0-0.6,0-1.1c-6.2,0.4-9.3,0.6-15.6,1 C133.6,254,133.6,254.2,133.6,254.7z" class="st119"/></g><g class="st120"><path d="M65.6,260.6c6.6-0.5,10-0.7,16.8-1.2c0-0.5,0-0.7,0-1.2c-6.8,0.4-10.2,0.7-16.8,1.1 C65.6,259.8,65.6,260.1,65.6,260.6z" class="st121"/><path d="M65.6,259.1c6.6-0.4,10-0.7,16.8-1.1c0-0.5,0-0.7,0-1.2c-6.8,0.4-10.2,0.6-16.8,1.1 C65.6,258.3,65.6,258.6,65.6,259.1z" class="st119"/></g><g><path fill="#032c75" d="M125.1,241.7L91,241.8c-2.3,0.1-4.2,2.2-4.2,4.8c-0.1,13.3-0.2,26.6-0.3,39.9c0,2.5,1.8,4.2,4.1,4 c11.4-1.3,22.8-2.7,34.2-4.1c2.3-0.3,4.2-2.4,4.2-4.7c0.1-12.3,0.1-23.5,0.2-35.8C129.3,243.5,127.4,241.6,125.1,241.7z M115.3,279.9c-6.1,0.7-9.2,1-15.2,1.7c0-0.1,0.1-0.1,0.1-0.2c1.6-5.7,2.4-8.6,4.1-14.4c-0.2-0.1-0.4-0.2-0.7-0.3 c-4-1.9-5.6-7.5-3.4-11.9c1.1-2.3,3.1-4.1,5.3-4.9c2-0.7,4.2-0.5,6,0.5c4,2,5.6,7.4,3.5,11.7c-0.8,1.7-2.2,3.1-3.7,4.1 C112.8,271.6,113.7,274.4,115.3,279.9z"/><path d="M111.3,266.3c0.2-0.1,0.3-0.2,0.5-0.3c0,0,4.3-1.5,4.3-7.8c0-6.3-3.2-7.7-6-8.6 c-0.9-0.3-1.7-0.3-1.3-0.1c2.2,0.9,3.8,2.3,4.9,4.6c2.2,4.4,0.2,9.9-3.8,11.7c-0.2,0.1-0.4,0.2-0.7,0.3c1.7,5.9,2.3,8.2,4,14 c1-0.1,1.5-0.1,2.5-0.2c0,0,0,0.1,0,0C114.2,274.2,111.3,266.3,111.3,266.3z" class="st115"/><path d="M84.8,293.1c-1.7-1.6-2.6-4-2.6-6.6c0.1-12.9,0.2-25.8,0.3-38.7c0-2.8,1-5.5,2.8-7.6 c1.7-1.9,4-3,6.3-3l0,0c10.9-0.3,32.8,0.2,32.8,0.2c5.1,0.2,9.1,3,9.1,8.1c-0.1,11.7-0.1,23.4-0.2,35.1 c0,5.1-4.2,9.7-9.3,10.4c-11,1.4-22,2.8-33,4.1l0,0C88.7,295.4,86.5,294.7,84.8,293.1z M86.1,241.1c-1.6,1.8-2.5,4.1-2.5,6.7 c-0.1,12.9-0.2,25.7-0.3,38.6c0,2.3,0.8,4.4,2.3,5.8s3.4,2,5.6,1.8l0,0c11-1.3,22-2.7,33-4.1c4.5-0.6,8.1-4.7,8.1-9.1 c0.1-11.7,0.1-23.5,0.2-35.2c0-4.5-4.3-7.3-8.7-7.2c-10.6,0-21.2-0.2-32.1,0l0,0C89.6,238.5,87.6,239.5,86.1,241.1z" class="st119"/></g></g></g></g></g></g><g><path d="M128.3,213.7c0.6,0.5,4.1,16.3,4.1,16.3s0.9,2.9,4.5,3.3l7.7,0.3c0.4,3.5,1.1,4.9,1.5,8.2s-0.6,8.1-0.8,9.2 c-0.1,0.6,0.1,1.2,0.6,1.6l0,0l-8.5,26.4c-0.2,0.7-0.2,1.5,0,2.3l9.3,22.1l1-0.2l0.9,2.9l0,0c0.5,1.5-1.1,4.1-1.1,4.1l0,0l0,0 l-0.8,1.7c-0.2,0.1-0.4,0.1-0.6,0c-0.9-0.2-1.5,0-1.9,0.2c-0.2,0.1-0.3,0.4-0.3,0.7c0.1,0.3,0.3,0.4,0.6,0.4l3.8,0.5l8.5-1.9 c0.1-2.4,1.1-2.9,1.1-2.9l0,0l0,0l-0.2-1.4l-0.1-2.2h0.7c0.5-8.7,1.6-16.7-1.1-23.5c1.2-8.3,1.4-13.5,1.8-18.9 c0-0.2,0.1-0.5,0.2-0.7c0,0,0,0,0-0.1l0,0c0.1-0.2,1.1-0.3,1.2-0.5c0.1-0.2,0.1-0.3,0.2-0.5c0.1-0.2,1.2-0.4,1.3-0.6 c0-0.2,0.1-0.3,0.1-0.5s0.1-0.4,0.1-0.6s0.1-0.3,0.1-0.5s0-0.4,0.1-0.6c0-0.1,0-0.3,0-0.4c0-0.2,0-0.4,0-0.6c0-0.1,0-0.3,0-0.4 c0-0.2,0-0.4,0-0.6c0-0.1,0-0.3,0-0.4c0-0.2-0.1-0.4-0.1-0.6c0-0.1,0-0.2,0-0.3s0-0.1,0-0.2l0,0c0.1-0.1,0.2-0.2,0.3-0.3 c0.2-0.4,0.3-0.9,0.4-1.3c0-0.2,0.1-0.3,0.1-0.5c0.3-1.5-1.7-3.2-1.8-4.8c0-0.7-0.1-4.3-0.1-5.1c-0.1-1.2-0.2-2.3-0.3-3.5 c0.3-2.6,2.2-5.7,2.2-5.7c2.6-5.9,2.1-3.2-0.1-7.3c-0.1-0.4-0.3-0.8-0.6-1.2c-0.6-1-1.4-1.8-2.4-2.4l-2.6-1.4h-0.1v-0.2l0,0 c-0.1-1.3-1.1-1.4-1.1-1.4h-0.4v-3.1l0,0c0.1,0,0.2-0.1,0.3-0.2c0.3-0.7,1.4-2.6,2-3.5c0.8-1.1,1.3-3.7-1.2-3.9l-0.3-1.1 c-0.4-0.9-1.2-1.3-2.1-1.6c-1.8-0.5-5.9-0.6-6,2.2c0,0.5,0.1,0.8,0.2,1c-0.7,1.3-1.6,3.7-0.9,6.5c0,0-0.1,3.5,3.5,2.9v0.7 c-0.8,0.1-1.3,1-1.5,1.4l-1.5,0.2c-1.2-0.2-4.4-0.4-6.6,1.6c0,0-3.4,0.1-4.8,1.2l-5.3-11.4c0.1-0.2,0.5-2.3,0.6-2.7 c0-0.2,0-0.5,0-0.7c0.1-0.2,0.2-0.9,0.2-1.1c0-0.2,0.2-0.4,0-0.5s-0.5,0.2-0.6,0.3c-0.2,0.3-0.8,1.4-1.1,1.1 c-0.2-0.3,0.1-1.4,0.1-1.7s-0.1-1.2-0.1-1.4s0-0.6-0.4-0.6c-0.6,0-0.6,3.2-0.7,3.2c-0.2,0,0-1,0-1.3c-0.1-0.2-0.3-0.8-0.3-0.9 c-0.1-0.2-0.2-0.5-0.3-0.7s-0.2-0.4-0.5-0.3c-0.3,0.1-0.2,0.3-0.2,0.4c0,0.1,0.5,2.5,0.6,2.7s0.2,0.3,0,0.2 c-0.1-0.1-1.3-1.8-1.4-2l0.3,1.6c0.1,0.2-0.6-0.6-0.4-0.4C126.8,208.2,127.2,212.8,128.3,213.7z M151.3,304.9l-0.6-2.6l0.7-0.2 c-1.5-6.1-1.9-10.1-3-15.8c-0.6-3.3-1.5-3.1-2.9-5.2l4.6-10.1l0,0l0,0l0.7,11.2l0.9,6.3l1.8,16.5h1.1l0.2,2.1 C153.3,305.6,151.3,304.9,151.3,304.9L151.3,304.9L151.3,304.9z" class="st37"/><g><g><g><path d="M149,295.5l3.4,10.9l0,0c0.5,1.5-1.1,4.1-1.1,4.1l0.4,1.5l1.3-1l2.2-5.7l-2.3-9.9H149V295.5z" class="st123"/><g><path d="M157.8,296.7l1,10.3c0.1,1-0.9,1.9-1.7,2.5c-0.8,0.5-1.5,0.8-1.5,0.8l-0.6,1.4h1.6l5.2-3.2l-0.2-1.4 l-0.4-8.7L157.8,296.7z" class="st123"/><path fill="#cadefc" d="M161.8,308.5c0,0,1.3,2.8,0,3.7c-1.5,1-10.9,0.7-10.9,0.7c-0.3,0-0.5-0.2-0.6-0.4 c-0.1-0.3,0-0.5,0.3-0.7c0.4-0.2,1-0.4,1.9-0.2c0.3,0.1,0.5,0,0.8-0.1l2.3-1.2l0.5,0.7L161.8,308.5z"/></g><path d="M155.1,305.5l-3,5.5l-0.8-0.3l-0.8,1.7c-0.2,0.1-0.4,0.1-0.6,0c-0.9-0.2-1.5,0-1.9,0.2 c-0.2,0.1-0.3,0.4-0.3,0.7c0.1,0.3,0.3,0.4,0.6,0.4h3.3l3.1-2.4c0,0,2.1-1.5,3.1-3.1C158.6,306.5,155.1,305.5,155.1,305.5z" class="st11"/><path d="M159.6,216.5v3.7H155v-0.6v-0.7v-0.1l-2.9-1.2l-0.6-1.6c-0.1-0.6-0.2-1.2-0.2-1.7c0-0.1-0.6-0.3-0.6-0.5 c0-0.3,0.6-0.7,0.7-1.2c0.1-1.3,0.6-2.3,1-3c0.4-0.8,0.8-1.2,0.8-1.2l3.9,2.2l1.2,2.9L159.6,216.5L159.6,216.5z" class="st123"/><path d="M161.8,212.8c-0.6,0.9-1.6,2.8-2,3.5c-0.1,0.1-0.2,0.2-0.3,0.2h-0.1h-2.8c-1.9-0.3-2.1-2.2-2.1-2.2 c0-0.8-0.4-1.2-0.7-1.3c-0.1,0-0.2,0-0.3,0c-0.1,0.1-0.2,0.2-0.2,0.3v2.6c1.5,1,1.6,2.2,1.6,2.2v0.8c0,0,0,0-0.1,0 c-3.6,0.6-3.5-2.9-3.5-2.9c0.1,0.3,0.3,0.4,0.5,0.5s0.4,0,0.5-0.1s0.2-0.3,0.2-0.5v-3.2c0-1.2,0.4-1.9,0.7-2.4 c-0.3-0.1-0.8-0.2-1-0.8c-0.1-0.3-0.2-0.6-0.2-1c0.1-2.8,4.2-2.7,6-2.2c0.9,0.3,1.7,0.7,2.1,1.6c0,0.1,0.3,1.1,0.3,1.1 C163.1,209.1,162.6,211.8,161.8,212.8z" class="st125"/><path d="M158.3,261.6l-8.7,19.3c1.4,2.1,2.3,2,2.9,5.2c1.1,5.7,1.6,9.6,3,15.8l-4.8,1.1l-10.3-22.1 c-0.2-0.7-0.2-1.5,0-2.3l9.7-27.2h0.1l2.9-1h5.7l3.7,0.4l0.5,0.5C163,251.3,163.4,257.6,158.3,261.6z" class="st126"/><path d="M165.2,261.8c-0.1,0.2-0.2,0.4-0.2,0.7c-0.4,5.5-0.6,10.7-1.7,18.9c2.6,6.8-0.5,14.8-1.1,23.5h-4.8 l-1.8-16.5l-0.9-6.3l-0.7-11.2l0,0l-0.2-2.4l-1-15.8v-0.5l9.8-1h0.1l2.1-1.3c0,0,0.2,0.4,0.5,1.2c0,0.1,0.1,0.3,0.1,0.4 c0.1,0.4,0.3,1,0.4,1.5C166.4,255.1,166.6,259,165.2,261.8z" class="st126"/><path d="M149.4,263.8c8-8.4,6-12.6,6-12.6l-4,0.2l-0.1,0.3l-1-0.2h-0.1l-9.7,27.2c-0.2,0.7-0.2,1.5,0,2.3 l5.4,11.5l-3.8-12.1l7.1-16L149.4,263.8z" class="st127"/><path d="M149.6,280.9c1.4,2.1,2.3,2,2.9,5.2c-1.9-4.9-3.8-4.5-3.8-4.5l-2.5-1h2.1l10.1-19L149.6,280.9z" class="st127"/><path d="M165.9,252.9c-0.1-0.6-0.3-1.1-0.4-1.5c-0.7,0.5-1.4,0.8-2.1,0.8c0.4,1.7-1.3,6.4-5,9.4l0,0l-4.2,9.2 l0,0l0.7,11.2l0.9,6.3l0.6-15.4l0.4-2.5c-0.1-3.6,6.7-7.2,8-8.1c0.2-0.2,0.4-0.4,0.5-0.6C166.6,259,166.4,255,165.9,252.9z" class="st127"/><path d="M161.1,221v0.6l-3.9-0.2l-3.8-0.2c0,0,0-0.1,0.1-0.2c0.2-0.4,0.6-1.2,1.5-1.4l0,0h5 C159.9,219.6,160.9,219.7,161.1,221z" class="st6"/><path d="M166.6,239c0.2,1.9,0.4,6.8,0.5,8.7c0.1,1.6,0.2,2.2-0.2,3.8c-0.1,0.5-0.2,2-0.8,2.1 c-0.9,0.1-5.5-0.7-8.4-1.2c-0.7-0.1-1.3-0.3-2-0.3c-1,0.1-2,0.3-2.9,0.5c-1.1,0.2-2.2,0.3-2.9-0.3c-0.4-0.4-0.7-1-0.6-1.6 c0.2-1.1,0.6-6.7,0.8-9.2c0-1.1,0.1-2.1,0-3c-0.4-3.7-2.5-4.8-2.4-10.2v-3.6c0,0,0.2-2.7,2.4-3.3l3.3-0.4l3-0.3l0.5,0.1 l4.1,0.5h0.1l2.6,1.4c1.5,0.8,2.6,2.2,3.1,3.9c0.2,0.5,0.3,1.1,0.3,1.7C167.1,231.2,166.7,238,166.6,239z" class="st6"/><path d="M150.7,235c0.7,1.8,0.2,4-0.5,6.5c0.1-1.1,0.1-2.1,0-3c-0.4-3.7-2.5-4.8-2.4-10.2v-0.1l5.3-4.2 c0,0,0.9,4.1-2.8,7.7C150.3,231.6,150,233.1,150.7,235z" class="st128"/><g><polygon points="159.9 219.6 159.6 219.6 159.6 219.6" class="st11"/><path d="M156.8,219.6H155l0,0H156.8L156.8,219.6L156.8,219.6z" class="st34"/><path fill="#031630" d="M159.6,216.5L159.6,216.5c0.1,0,0.2-0.1,0.3-0.2c0.3-0.7,1.4-2.6,2-3.5c0,0-2.3-1.8-3.6,0.5 c0,0.1-0.1,0.1-0.1,0.2c0,0-0.7,0.8-1.1,3c-0.2,0.8-0.3,1.8-0.3,3.1h2.8L159.6,216.5L159.6,216.5z" enable-background="new" opacity=".15"/><polygon fill="#8096a3" points="159.6 219.6 156.8 219.6 156.8 219.6 156.8 219.6"/></g></g><path d="M167.1,228.3c0-0.6-0.1-1.2-0.3-1.7c-0.5-1.6-1.6-3-3.1-3.9l-2.6-1.4H161V221c-0.1-1.3-1.1-1.4-1.1-1.4 h-0.4l0,0h-2.8c0,0.1,0,0.1,0,0.2c0,0.1,0,0.3,0,0.4c0,0.2,0.1,0.3,0.1,0.5c0.1,0.2,0.1,0.5,0.2,0.7c1.3,3,5.8,5.2,3.5,10.9 c-1.2,3.1-1.6,5.6-1.5,8.2c0.1,1.8-0.2,6.6-0.9,8.3c-0.6,1.5-1.4,2.9-2.5,3.2l0,0c0.7,0,1.3,0,2,0.3c1.1,0.4,4.5,0.6,5.6,1 c0,0,1.9,0.7,2.8,0.3c0.5-0.3,0.7-1.6,0.8-2.1c0.3-1.5,0.2-2.2,0.2-3.8c-0.1-1.9-0.2-6.8-0.5-8.7 C166.7,238,167.1,231.2,167.1,228.3z" class="st128"/></g><path d="M130.9,212c0.1-0.2,0.4-0.6,0.4-0.7c0.2-0.3,0.3-0.7,0.4-1.1c0-0.2,0-0.5,0-0.7c0.1-0.2,0.2-0.9,0.2-1.1 c0-0.2,0.2-0.4,0-0.5s-0.5,0.2-0.6,0.3c-0.2,0.3-0.3,0.7-0.4,1c-0.1,0.3-0.1,0.4-0.4,0.1c-0.2-0.3-0.3-1.4-0.3-1.7 s-0.1-1.2-0.1-1.4s0-0.6-0.4-0.6s-0.3,0.7-0.3,0.9s0,0.6,0,0.8s0.1,1,0,1.1c-0.1,0-0.3-0.7-0.4-0.9c-0.1-0.3-0.3-0.7-0.4-0.9 c-0.1-0.2-0.2-0.5-0.3-0.7s-0.2-0.4-0.5-0.3c-0.3,0.1-0.2,0.3-0.2,0.4c0,0.1,0.2,0.5,0.3,0.8c0.1,0.3,0.2,0.5,0.4,1.1 c0.1,0.3,0.3,0.7,0.4,0.8c0.1,0.2-0.5-0.8-0.6-1c-0.1-0.2-0.3-0.6-0.5-0.9c-0.2-0.3-0.4-0.3-0.5-0.2s-0.2,0.3-0.1,0.4 c0.1,0.1,0.4,0.8,0.5,1s0.4,0.9,0.6,1.1c0.2,0.2,0,0.3-0.1,0c-0.1-0.2-0.4-0.9-0.6-1.2c-0.3-0.2-0.5-0.2-0.5,0.1s0.9,2.5,1,2.7 s0.3,0.5,0.4,0.7c0.5,0.6,0.6,0.8,1,0.9l3.8,10.3c1.6,0.2,2.4-0.1,3.5-1.7L130.9,212z" class="st123"/><path d="M152.4,221.3c0,0-4.4-0.9-7.1,1.5c0,0-4.5-0.2-5.9,0.9l-1.3,0.1l-1.7-2.7c-1.4-0.2-3.1,0.6-3.5,1.7l1.6,3.9 c0,0,0.9,2.9,4.5,3.3l8.9,0.6C147.9,230.6,155.4,227.8,152.4,221.3z" class="st6"/></g><ellipse cx="151.7" cy="212.4" class="st125" rx=".1" ry=".5"/></g><g><path d="M119.2,83.3L119.2,83.3c2.4,0.7,4.2-0.6,4.1-3l0,0c-0.1-2.4-2.1-5-4.5-5.7l0,0c-2.4-0.7-4.2,0.7-4.1,3.1l0,0 C114.8,80.1,116.8,82.6,119.2,83.3z" class="st51"/><path d="M103.6,78.6L103.6,78.6c2.4,0.7,4.4-0.6,4.3-3l0,0c-0.1-2.4-2.2-5-4.6-5.8l0,0c-2.4-0.8-4.4,0.6-4.3,3.1l0,0 C99.1,75.3,101.1,77.9,103.6,78.6z" class="st50"/><path d="M88,73.8L88,73.8c2.5,0.8,4.5-0.6,4.4-3l0,0c-0.1-2.4-2.2-5.1-4.7-5.9l0,0c-2.5-0.8-4.5,0.6-4.4,3.1l0,0 C83.3,70.5,85.5,73.1,88,73.8z" class="st49"/></g><g><polygon points="55.5 363.3 18.1 371 18.2 368.7 55.7 361" class="st54"/><polygon points="100.8 376.5 69.7 383.9 69.9 381.6 101 374.2" class="st6"/></g><g><path d="M152.6,73.2c1.3,5.4,6.7,10.6,11.1,18.2c4.4,7.6,10,24.5,10,24.5l3.2,0.1c1-3.7,0.8-15.5,4.5-20.2 c2.6-3.2,5.5-9.1,8.4-12.9L152.6,73.2z" class="st112"/><path fill="#f99573" d="M158.6,60.5c0,11.9,9.4,22.3,14.2,29.8s7.9,19.6,7.9,19.6h3.9c1.2-3.2,0.9-14.3,3.8-17.9 c5.3-6.7,14.4-13.4,14.4-25.3c0-12.2-7.5-23.6-19.7-25.3C170.8,39.7,158.6,48.3,158.6,60.5z"/><path d="M162.5,60.5c0,11.9,9.4,22.3,14.2,29.8s7.9,19.6,7.9,19.6s2.3-11.3,7.7-17.9c5.3-6.7,14.4-13.4,14.4-25.3 c0-12.2-9.9-23.4-22.1-25.2C172.3,39.8,162.5,48.3,162.5,60.5z" class="st99"/><ellipse cx="184.1" cy="63.8" class="st11" rx="10" ry="11.5" transform="matrix(0.7315 -0.6819 0.6819 0.7315 5.936 142.6729)"/></g></g><g id="perspective" display="none"><polyline points="1084.8 9.3 2296.1 245 3511.5 9.3" class="st133"/><polyline points="1084.8 -199.1 2296.1 245 3511.5 -199.1" class="st133"/><polyline points="1084.8 -453.3 2296.1 245 3511.5 -453.3" class="st133"/><polyline points="1176.7 -580.8 2296.1 245 3399.5 -558" class="st133"/><polyline points="1024.5 -343 2296.1 245 3584.1 -344.9" class="st133"/><polyline points="1084.8 421.5 2296.1 245 3511.5 421.5" class="st133"/><polyline points="1084.8 520.2 2296.1 245 3511.5 517.2" class="st133"/><polyline points="1084.8 252.3 2296.1 245 3511.5 252.3" class="st133"/><polyline points="1084.8 252.3 2296.1 245 3511.5 336.1" class="st133"/><polyline points="1084.8 618.8 2296.1 245 3511.5 618.8" class="st133"/><polyline points="1120.3 715.3 2296.1 245 3489 726.6" class="st133"/></g></svg>